<svg xmlns="http://www.w3.org/2000/svg" width="148.216" height="96.599" viewBox="0 0 148.216 96.599">
  <path id="Path_24511" data-name="Path 24511" d="M71.98,6.623V23.342H6.7V5.03A31.948,31.948,0,0,1,8.886-7.443,24.019,24.019,0,0,1,15.122-16.2a33.752,33.752,0,0,1,9.753-5.9A80.57,80.57,0,0,1,37.746-26.02a46.22,46.22,0,0,0,8.691-2.72,18.779,18.779,0,0,0,5.374-3.45,10.111,10.111,0,0,0,2.72-4.246,17.454,17.454,0,0,0,.73-5.241,12.085,12.085,0,0,0-4.047-9.288Q47.167-54.681,40-54.681q-7.563,0-12.075,4.578T23.415-37.431v5.838H5.9v-7.431A33.6,33.6,0,0,1,8.222-51.43a30.984,30.984,0,0,1,6.635-10.35,31.07,31.07,0,0,1,10.549-7.033A36.4,36.4,0,0,1,39.471-71.4a39.722,39.722,0,0,1,14.6,2.455A31.756,31.756,0,0,1,64.483-62.51a25.449,25.449,0,0,1,6.236,9.222,29.355,29.355,0,0,1,2.057,10.814v1.592q0,11.677-6.568,19.373T44.779-10.362A84.329,84.329,0,0,0,34.495-7.376a22.377,22.377,0,0,0-6.3,3.384A10.124,10.124,0,0,0,25.074.054a13.492,13.492,0,0,0-.862,4.976V6.623ZM85.648-33.45q0-18.046,9.089-28T119.882-71.4q16.056,0,25.145,9.952t9.089,28v20.7q0,18.577-9.089,28.263T119.882,25.2q-16.056,0-25.145-9.686T85.648-12.75ZM119.882,9.276a18.384,18.384,0,0,0,7.961-1.526,13.308,13.308,0,0,0,5.175-4.312A17.29,17.29,0,0,0,135.8-3.2a41.991,41.991,0,0,0,.8-8.492V-34.512a34.981,34.981,0,0,0-.929-8.227,18.924,18.924,0,0,0-2.919-6.635,14.446,14.446,0,0,0-5.175-4.445,16.483,16.483,0,0,0-7.7-1.659,16.483,16.483,0,0,0-7.7,1.659,14.446,14.446,0,0,0-5.175,4.445,18.925,18.925,0,0,0-2.919,6.635,34.982,34.982,0,0,0-.929,8.227v22.823a41.99,41.99,0,0,0,.8,8.492,17.29,17.29,0,0,0,2.787,6.635A13.309,13.309,0,0,0,111.92,7.75,18.384,18.384,0,0,0,119.882,9.276Z" transform="translate(-5.9 71.4)"/>
</svg>
