<svg xmlns="http://www.w3.org/2000/svg" width="111.7" height="72.8" viewBox="0 0 111.7 72.8">
  <path id="Path_24511" data-name="Path 24511" d="M55.7-12.6V0H6.5V-13.8a24.077,24.077,0,0,1,1.65-9.4,18.1,18.1,0,0,1,4.7-6.6,25.436,25.436,0,0,1,7.35-4.45,60.721,60.721,0,0,1,9.7-2.95,34.831,34.831,0,0,0,6.55-2.05,14.153,14.153,0,0,0,4.05-2.6,7.62,7.62,0,0,0,2.05-3.2A13.154,13.154,0,0,0,43.1-49a9.107,9.107,0,0,0-3.05-7Q37-58.8,31.6-58.8a12.2,12.2,0,0,0-9.1,3.45q-3.4,3.45-3.4,9.55v4.4H5.9V-47a25.318,25.318,0,0,1,1.75-9.35,23.351,23.351,0,0,1,5-7.8,23.415,23.415,0,0,1,7.95-5.3A27.433,27.433,0,0,1,31.2-71.4a29.936,29.936,0,0,1,11,1.85,23.933,23.933,0,0,1,7.85,4.85,19.179,19.179,0,0,1,4.7,6.95A22.123,22.123,0,0,1,56.3-49.6v1.2q0,8.8-4.95,14.6T35.2-25.4a63.551,63.551,0,0,0-7.75,2.25A16.864,16.864,0,0,0,22.7-20.6a7.629,7.629,0,0,0-2.35,3.05,10.168,10.168,0,0,0-.65,3.75v1.2ZM66-42.8q0-13.6,6.85-21.1T91.8-71.4q12.1,0,18.95,7.5t6.85,21.1v15.6q0,14-6.85,21.3T91.8,1.4q-12.1,0-18.95-7.3T66-27.2ZM91.8-10.6a13.855,13.855,0,0,0,6-1.15A10.03,10.03,0,0,0,101.7-15a13.03,13.03,0,0,0,2.1-5,31.646,31.646,0,0,0,.6-6.4V-43.6a26.363,26.363,0,0,0-.7-6.2,14.262,14.262,0,0,0-2.2-5,10.887,10.887,0,0,0-3.9-3.35,12.422,12.422,0,0,0-5.8-1.25A12.422,12.422,0,0,0,86-58.15a10.887,10.887,0,0,0-3.9,3.35,14.262,14.262,0,0,0-2.2,5,26.363,26.363,0,0,0-.7,6.2v17.2a31.646,31.646,0,0,0,.6,6.4,13.03,13.03,0,0,0,2.1,5,10.03,10.03,0,0,0,3.9,3.25A13.855,13.855,0,0,0,91.8-10.6Z" transform="translate(-5.9 71.4)" fill="#fff"/>
</svg>
