<svg xmlns="http://www.w3.org/2000/svg" width="31.743" height="20.837" viewBox="0 0 31.743 20.837">
  <path id="Path_24512" data-name="Path 24512" d="M20.154-54.57v3.606H6.072v-3.95A6.892,6.892,0,0,1,6.544-57.6a5.181,5.181,0,0,1,1.345-1.889,7.28,7.28,0,0,1,2.1-1.274,17.38,17.38,0,0,1,2.776-.844,9.97,9.97,0,0,0,1.875-.587,4.051,4.051,0,0,0,1.159-.744,2.181,2.181,0,0,0,.587-.916,3.765,3.765,0,0,0,.157-1.131,2.607,2.607,0,0,0-.873-2,3.442,3.442,0,0,0-2.419-.8,3.492,3.492,0,0,0-2.6.987,3.726,3.726,0,0,0-.973,2.733v1.259H5.9v-1.6a7.247,7.247,0,0,1,.5-2.676,6.684,6.684,0,0,1,1.431-2.233,6.7,6.7,0,0,1,2.276-1.517,7.852,7.852,0,0,1,3.034-.558,8.569,8.569,0,0,1,3.148.53,6.85,6.85,0,0,1,2.247,1.388,5.49,5.49,0,0,1,1.345,1.989,6.332,6.332,0,0,1,.444,2.333v.343a6.212,6.212,0,0,1-1.417,4.179,8.393,8.393,0,0,1-4.623,2.4,18.19,18.19,0,0,0-2.218.644,4.827,4.827,0,0,0-1.36.73,2.184,2.184,0,0,0-.673.873,2.91,2.91,0,0,0-.186,1.073v.343Zm8.386-4.98V-65.5l4.98-1.374v-.515H23.56V-71H36.612v6.3l-5.324,1.546v.515h.687a6.828,6.828,0,0,1,2.089.329A5.084,5.084,0,0,1,35.882-61.3a5.218,5.218,0,0,1,1.274,1.7,5.48,5.48,0,0,1,.487,2.39v.343a6.834,6.834,0,0,1-.444,2.49,5.5,5.5,0,0,1-1.317,1.989,6.225,6.225,0,0,1-2.161,1.331,8.305,8.305,0,0,1-2.948.487,8.257,8.257,0,0,1-3.063-.544,6.89,6.89,0,0,1-2.333-1.488A6.607,6.607,0,0,1,23.9-54.77a6.677,6.677,0,0,1-.515-2.6v-1.2h3.778v1.03a3.465,3.465,0,0,0,.887,2.376,3.371,3.371,0,0,0,2.662,1,3.262,3.262,0,0,0,2.333-.773,2.67,2.67,0,0,0,.816-2.032,2.232,2.232,0,0,0-.873-1.961,3.76,3.76,0,0,0-2.218-.615Z" transform="translate(-5.9 71.4)" fill="#ff4545"/>
</svg>
