<svg xmlns="http://www.w3.org/2000/svg" width="113.7" height="71.4" viewBox="0 0 113.7 71.4">
  <path id="Path_24510" data-name="Path 24510" d="M178.1-12.6V0H128.9V-13.8a24.077,24.077,0,0,1,1.65-9.4,18.1,18.1,0,0,1,4.7-6.6,25.436,25.436,0,0,1,7.35-4.45,60.721,60.721,0,0,1,9.7-2.95,34.831,34.831,0,0,0,6.55-2.05,14.153,14.153,0,0,0,4.05-2.6,7.62,7.62,0,0,0,2.05-3.2A13.153,13.153,0,0,0,165.5-49a9.107,9.107,0,0,0-3.05-7q-3.05-2.8-8.45-2.8a12.2,12.2,0,0,0-9.1,3.45q-3.4,3.45-3.4,9.55v4.4H128.3V-47a25.318,25.318,0,0,1,1.75-9.35,23.351,23.351,0,0,1,5-7.8,23.415,23.415,0,0,1,7.95-5.3,27.433,27.433,0,0,1,10.6-1.95,29.936,29.936,0,0,1,11,1.85,23.933,23.933,0,0,1,7.85,4.85,19.179,19.179,0,0,1,4.7,6.95,22.123,22.123,0,0,1,1.55,8.15v1.2q0,8.8-4.95,14.6T157.6-25.4a63.55,63.55,0,0,0-7.75,2.25,16.864,16.864,0,0,0-4.75,2.55,7.629,7.629,0,0,0-2.35,3.05,10.168,10.168,0,0,0-.65,3.75v1.2ZM206.8-70h25v44.2H242v12.6H231.8V0H218.6V-13.2H187.4V-31.4Zm-8,42.4v1.8h19.8V-63.4h-1.8Z" transform="translate(-128.3 71.4)" fill="#ff4545"/>
</svg>
