<svg xmlns="http://www.w3.org/2000/svg" width="147.719" height="94.749" viewBox="0 0 147.719 94.749">
  <path id="Path_24515" data-name="Path 24515" d="M130.247,40.114v16.4H66.214V38.552a31.336,31.336,0,0,1,2.147-12.234,23.559,23.559,0,0,1,6.117-8.59,33.1,33.1,0,0,1,9.566-5.792A79.028,79.028,0,0,1,96.669,8.1a45.332,45.332,0,0,0,8.525-2.668,18.42,18.42,0,0,0,5.271-3.384,9.917,9.917,0,0,0,2.668-4.165,17.119,17.119,0,0,0,.716-5.141,11.853,11.853,0,0,0-3.97-9.11q-3.97-3.644-11-3.644-7.418,0-11.844,4.49T82.613-3.1V2.631H65.433V-4.658a32.952,32.952,0,0,1,2.278-12.169,30.391,30.391,0,0,1,6.507-10.152,30.474,30.474,0,0,1,10.347-6.9,35.7,35.7,0,0,1,13.8-2.538,38.962,38.962,0,0,1,14.316,2.408,31.148,31.148,0,0,1,10.217,6.312,24.961,24.961,0,0,1,6.117,9.045,28.793,28.793,0,0,1,2.017,10.607V-6.48q0,11.453-6.442,19T103.567,23.455A82.712,82.712,0,0,0,93.48,26.383,21.948,21.948,0,0,0,87.3,29.7a9.93,9.93,0,0,0-3.059,3.97,13.233,13.233,0,0,0-.846,4.881v1.562ZM146,15.906v-50.5H206.9v16.4h-43.73V6.535h2.343A18.847,18.847,0,0,1,172.35-2.25q5.011-3.709,13.47-3.709a28.388,28.388,0,0,1,11.453,2.213,24.623,24.623,0,0,1,8.59,6.117,26.973,26.973,0,0,1,5.4,9.371,36.477,36.477,0,0,1,1.887,11.974V24.5a36.994,36.994,0,0,1-2.278,13.015,31.462,31.462,0,0,1-6.638,10.737A31.72,31.72,0,0,1,193.5,55.6a37.056,37.056,0,0,1-14.707,2.733,43.633,43.633,0,0,1-14.707-2.278,30.324,30.324,0,0,1-10.737-6.377,27.118,27.118,0,0,1-6.638-9.761,32.649,32.649,0,0,1-2.278-12.3V24.5h17.18v1.562a15.947,15.947,0,0,0,4.23,11.388q4.23,4.49,12.429,4.49t12.95-4.425q4.75-4.425,4.75-12.234,0-7.418-3.514-11.128a12.141,12.141,0,0,0-9.241-3.709,10.51,10.51,0,0,0-6.117,1.627,7.183,7.183,0,0,0-2.993,3.839Z" transform="translate(-65.433 36.414)" fill="#ff4545"/>
</svg>
