<svg xmlns="http://www.w3.org/2000/svg" width="22" height="22" viewBox="0 0 22 22">
  <g id="BusinessLine_icon" transform="translate(2197 -379.556)">
    <circle id="Ellipse_6" data-name="Ellipse 6" cx="11" cy="11" r="11" transform="translate(-2197 379.556)" fill="#1e78c1"/>
    <g id="Group_3067" data-name="Group 3067" transform="translate(-2192.188 385.794)">
      <g id="Group_3049" data-name="Group 3049" transform="translate(11.358 7.412)">
        <path id="Path_360" data-name="Path 360" d="M-4.166-7.833a.83.83,0,0,1-.829-.829.83.83,0,0,1,.829-.829.83.83,0,0,1,.829.829A.83.83,0,0,1-4.166-7.833Zm0-1.547a.719.719,0,0,0-.718.719.719.719,0,0,0,.718.718.719.719,0,0,0,.718-.718A.719.719,0,0,0-4.166-9.381Z" transform="translate(4.995 9.491)" fill="#fff"/>
      </g>
      <g id="Group_3050" data-name="Group 3050" transform="translate(11.721 7.775)">
        <path id="Path_8135" data-name="Path 8135" d="M-2.242-4.484a.466.466,0,0,0,.466-.466.466.466,0,0,0-.466-.466.466.466,0,0,0-.466.466.466.466,0,0,0,.466.466" transform="translate(2.708 5.416)" fill="#fff"/>
      </g>
      <g id="Group_3051" data-name="Group 3051" transform="translate(7.341 0.027)">
        <path id="Path_8136" data-name="Path 8136" d="M-16.792-42.842l-.04-.08-.159-.013c-.465-.04-.557-.08-.557-.186v-8.628l-2.721.664-.013.053.292.08c.465.119.544.226.544,1.022v6.783c0,.159-.066.186-.478.212l-.173.013-.053.08Z" transform="translate(20.283 51.749)" fill="#fff"/>
      </g>
      <g id="Group_3052" data-name="Group 3052">
        <path id="Path_8137" data-name="Path 8137" d="M-19.6-43.225c-.438,0-.969-.518-1.354-1.195v-3.319a1.621,1.621,0,0,1,1.035-.451c.9,0,1.447,1,1.447,2.376,0,1.42-.4,2.588-1.128,2.588m-3.146.239,1.075-.518h.013a5.236,5.236,0,0,0,1.925.412,3.191,3.191,0,0,0,3.305-3.2,2.612,2.612,0,0,0-2.389-2.854A2.774,2.774,0,0,0-20.9-47.911l-.053-.04v-4.261l-2.708.664-.013.053.305.08c.465.119.544.226.544,1.022v7.407Z" transform="translate(23.677 52.212)" fill="#fff"/>
      </g>
    </g>
  </g>
</svg>
