<svg xmlns="http://www.w3.org/2000/svg" width="210.076" height="185.566" viewBox="0 0 210.076 185.566">
  <path id="bluesky-1" d="M45.537,12.49c24.083,18.142,49.991,54.922,59.5,74.659v52.132c0-1.109-.427.144-1.346,2.846-4.963,14.627-24.349,71.711-68.678,26.076-23.341-24.027-12.536-48.055,29.952-55.309-24.306,4.149-51.633-2.708-59.13-29.591C3.676,75.569,0,27.934,0,21.5,0-10.727,28.16-.6,45.537,12.49Zm119,0c-24.083,18.142-49.991,54.922-59.5,74.659v52.132c0-1.109.427.144,1.346,2.846,4.963,14.627,24.349,71.711,68.678,26.076,23.341-24.027,12.536-48.055-29.952-55.309,24.306,4.149,51.633-2.708,59.13-29.591,2.16-7.733,5.836-55.368,5.836-61.8,0-32.227-28.157-22.1-45.537-9.01Z" transform="translate(0 0)" fill="#fff"/>
</svg>
