<svg xmlns="http://www.w3.org/2000/svg" xmlns:xlink="http://www.w3.org/1999/xlink" width="22" height="22" viewBox="0 0 22 22">
  <defs>
    <clipPath id="clip-path">
      <circle id="Ellipse_5" data-name="Ellipse 5" cx="11" cy="11" r="11" transform="translate(0 0.105)" fill="#b7080d"/>
    </clipPath>
  </defs>
  <g id="Frontline" transform="translate(-127 -6949.105)">
    <g id="Group_12940" data-name="Group 12940" transform="translate(127 6949)">
      <circle id="Ellipse_4" data-name="Ellipse 4" cx="11" cy="11" r="11" transform="translate(0 0.105)" fill="#b7080d"/>
      <g id="Mask_Group_7" data-name="Mask Group 7" transform="translate(0 0)" clip-path="url(#clip-path)">
        <g id="Group_3065" data-name="Group 3065" transform="translate(4.972 14.916)">
          <path id="Path_8143" data-name="Path 8143" d="M55.481-7.234a.978.978,0,0,1-.714-.269.956.956,0,0,1-.275-.717v-.052a1.2,1.2,0,0,1,.116-.537.852.852,0,0,1,.329-.365.923.923,0,0,1,.485-.128.827.827,0,0,1,.644.258,1.048,1.048,0,0,1,.235.731v.217H55.032a.5.5,0,0,0,.156.313.471.471,0,0,0,.329.118A.575.575,0,0,0,56-7.886l.262.293a.8.8,0,0,1-.324.264A1.064,1.064,0,0,1,55.481-7.234Zm-.061-1.638a.333.333,0,0,0-.257.107.556.556,0,0,0-.126.307h.741V-8.5a.4.4,0,0,0-.1-.275A.343.343,0,0,0,55.421-8.872Zm2.069.656v.945h-.553V-9.953h1.046a1.211,1.211,0,0,1,.531.111.814.814,0,0,1,.353.314.876.876,0,0,1,.123.463.77.77,0,0,1-.27.622,1.124,1.124,0,0,1-.747.227Zm0-.448h.494a.485.485,0,0,0,.334-.1.375.375,0,0,0,.115-.295.442.442,0,0,0-.116-.319A.434.434,0,0,0,58-9.505h-.507ZM60.47-7.271a.591.591,0,0,1-.053-.179.644.644,0,0,1-.5.216.708.708,0,0,1-.485-.169.545.545,0,0,1-.192-.427.563.563,0,0,1,.235-.486,1.159,1.159,0,0,1,.679-.171h.245V-8.6a.328.328,0,0,0-.071-.221.279.279,0,0,0-.224-.083.317.317,0,0,0-.211.064.219.219,0,0,0-.076.177H59.28a.535.535,0,0,1,.107-.321.706.706,0,0,1,.3-.231,1.1,1.1,0,0,1,.438-.084.87.87,0,0,1,.585.185.648.648,0,0,1,.216.52v.864a.953.953,0,0,0,.079.429v.031Zm-.44-.37a.459.459,0,0,0,.217-.053.345.345,0,0,0,.147-.141v-.343h-.2q-.4,0-.426.276l0,.031a.213.213,0,0,0,.07.164A.272.272,0,0,0,60.029-7.641Zm3.1-.608a1.2,1.2,0,0,1-.209.738.67.67,0,0,1-.565.277.621.621,0,0,1-.488-.21V-6.5h-.532V-9.264h.494l.018.2a.626.626,0,0,1,.5-.232.675.675,0,0,1,.573.273,1.228,1.228,0,0,1,.2.752ZM62.6-8.288a.784.784,0,0,0-.1-.429.321.321,0,0,0-.286-.151.349.349,0,0,0-.344.192v.816a.355.355,0,0,0,.348.2Q62.6-7.663,62.6-8.288Zm1.779,1.054a.978.978,0,0,1-.714-.269.956.956,0,0,1-.275-.717v-.052a1.2,1.2,0,0,1,.116-.537.852.852,0,0,1,.329-.365A.923.923,0,0,1,64.32-9.3a.827.827,0,0,1,.644.258,1.048,1.048,0,0,1,.235.731v.217H63.929a.5.5,0,0,0,.156.313.471.471,0,0,0,.329.118.575.575,0,0,0,.481-.223l.262.293a.8.8,0,0,1-.324.264A1.064,1.064,0,0,1,64.379-7.234Zm-.061-1.638a.333.333,0,0,0-.257.107.556.556,0,0,0-.126.307h.741V-8.5a.4.4,0,0,0-.1-.275A.343.343,0,0,0,64.318-8.872Zm2.3.107a1.446,1.446,0,0,0-.192-.015.39.39,0,0,0-.4.2v1.3H65.5V-9.264H66l.015.238a.493.493,0,0,1,.444-.274.558.558,0,0,1,.166.024Z" transform="translate(-54.492 9.953)" fill="#b7080d"/>
        </g>
      </g>
    </g>
    <g id="Group_5156" data-name="Group 5156" transform="translate(133.209 6954.291)">
      <g id="Group_5146" data-name="Group 5146" transform="translate(0 0)">
        <g id="Group_1214" data-name="Group 1214" transform="translate(0.54 0)">
          <path id="Path_249" data-name="Path 249" d="M-59.084-67.768c1.162,0,1.3.118,1.6.623a7.189,7.189,0,0,1,.539,1.549h.269v-4.764h-.269a6.435,6.435,0,0,1-.539,1.532c-.253.4-.421.556-1.582.556h-.488v-4.882a5.207,5.207,0,0,1,1.364-.118,1.814,1.814,0,0,1,1.953,1.179,23.249,23.249,0,0,1,1.01,2.1h.3l-.168-3.822h-9.26v.269l.471.118c.623.168.741.2.741,1.33v8.233c0,1.128-.118,1.162-.741,1.33l-.471.118v.269h6.212v-.269l-.657-.135c-.69-.151-.758-.185-.758-1.313v-3.906Z" transform="translate(64.354 73.812)" fill="#fff"/>
        </g>
        <g id="Group_1215" data-name="Group 1215" transform="translate(0 1.482)">
          <path id="Path_250" data-name="Path 250" d="M-5.541-94.4c0-.1.009-.107.049-.131a.52.52,0,0,1,.12-.04v-.021h-.372v.021a.508.508,0,0,1,.119.04c.033.02.044.035.044.129v.043h-.388a.455.455,0,0,1-.009-.113.142.142,0,0,1,.091-.159,1.792,1.792,0,0,1,.164-.079v-.023l-.3.013V-94H-6l.009-.04c.013-.048.016-.056.1-.056h.662c.085,0,.088.008.1.056l.009.04h.02v-.473h-.02l-.011.053c-.011.053-.015.059-.1.059h-.314Zm-.008-.938a.281.281,0,0,1-.005.056H-5.97a.385.385,0,0,1-.007-.077c0-.1.065-.129.217-.129s.21.052.21.15m.453.418v-.453h-.02l-.009.039c-.012.047-.017.052-.1.052h-.285c0-.02,0-.037,0-.049a2.224,2.224,0,0,0,.414-.205v-.338h-.02l-.007.024a.1.1,0,0,1-.044.057,2.791,2.791,0,0,1-.389.213h0a.211.211,0,0,0-.222-.173c-.161,0-.237.112-.237.369v.465H-6l.009-.04c.013-.048.016-.056.1-.056h.662c.085,0,.088.008.1.056l.009.04Zm.016-1.541a.447.447,0,0,0-.487-.461.424.424,0,0,0-.468.453.449.449,0,0,0,.489.461.431.431,0,0,0,.466-.453m-.037,0c0,.125-.107.183-.458.183-.322,0-.422-.063-.422-.181s.109-.182.46-.182c.322,0,.421.057.421.181m.023-1.355V-97.9h-.767c-.1,0-.115-.008-.127-.056L-6-97.992h-.02v.257H-6l.012-.048c.015-.06.029-.064.132-.064h.348v0l-.512.368v.357H-6l.009-.039c.012-.047.032-.057.1-.057h.635c.1,0,.113.009.127.056l.011.04h.02v-.254h-.02l-.011.044c-.015.06-.031.065-.133.065h-.614v0Zm-.884-.982c0-.069.017-.083.071-.116a1.565,1.565,0,0,1,.218-.1v-.024l-.329.012v.793l.329.011v-.023a1.93,1.93,0,0,1-.218-.105.113.113,0,0,1-.071-.115v-.033h.753c.084,0,.088.008.1.067l.009.043h.02v-.481h-.02l-.009.043c-.015.059-.017.065-.1.065h-.753Zm.883-.481v-.735l-.35-.024v.024a1.673,1.673,0,0,1,.226.1c.072.041.084.06.084.166s-.016.105-.088.105h-.665c-.085,0-.091-.005-.1-.057L-6-99.746h-.02v.464H-6l.009-.04c.013-.048.016-.056.1-.056h.662c.085,0,.088.008.1.056l.009.04Zm0-.964v-.464h-.02l-.009.043c-.012.051-.016.057-.1.057h-.662c-.085,0-.089-.007-.1-.057L-6-100.71h-.02v.464H-6l.009-.043c.012-.049.016-.057.1-.057h.662c.085,0,.089.008.1.057l.009.043Zm0-1.4v-.076h-.767c-.1,0-.115-.008-.127-.056l-.011-.04h-.02v.257H-6l.012-.048c.015-.06.029-.064.132-.064h.348v0l-.512.368v.357H-6l.009-.039c.012-.047.032-.057.1-.057h.635c.1,0,.113.009.127.056l.011.04h.02v-.254h-.02l-.011.044c-.015.06-.031.065-.133.065h-.614v0Zm-.657-1v.021a.54.54,0,0,1,.116.041c.031.016.041.031.041.125v.047h-.374a.473.473,0,0,1-.009-.112c0-.088.013-.123.077-.161a1.1,1.1,0,0,1,.165-.083v-.023l-.284.012v.727H-6l.009-.04c.013-.048.016-.056.1-.056h.662c.085,0,.088.008.1.056l.009.04h.02v-.754l-.334-.019v.024a1.2,1.2,0,0,1,.209.1c.067.043.084.061.084.169s-.015.119-.095.119h-.322v-.045c0-.095.009-.111.041-.127a.617.617,0,0,1,.121-.041v-.021Z" transform="translate(6.035 102.82)" fill="#fff"/>
        </g>
      </g>
    </g>
  </g>
</svg>
