<svg xmlns="http://www.w3.org/2000/svg" width="228.81" height="228.819" viewBox="0 0 228.81 228.819">
  <g id="XMLID_1622_" transform="translate(0)">
    <path id="XMLID_1627_" d="M209.116,136.481c30.551,0,34.168.114,46.232.669,11.157.51,17.212,2.376,21.242,3.942a37.925,37.925,0,0,1,21.717,21.717c1.566,4.03,3.432,10.093,3.942,21.25.546,12.064.669,15.68.669,46.232s-.114,34.168-.669,46.232c-.51,11.158-2.376,17.212-3.942,21.242a37.877,37.877,0,0,1-21.717,21.708c-4.03,1.566-10.093,3.432-21.242,3.942-12.064.546-15.681.669-46.232.669s-34.168-.114-46.232-.669c-11.158-.51-17.212-2.376-21.242-3.942a37.878,37.878,0,0,1-21.717-21.708c-1.566-4.03-3.432-10.084-3.942-21.242-.546-12.064-.669-15.681-.669-46.232s.114-34.168.669-46.232c.51-11.158,2.376-17.212,3.942-21.25a37.926,37.926,0,0,1,21.717-21.717c4.03-1.566,10.093-3.432,21.242-3.942,12.064-.546,15.68-.669,46.232-.669m0-20.608c-31.071,0-34.969.132-47.173.686-12.178.554-20.494,2.49-27.771,5.315a58.483,58.483,0,0,0-33.455,33.464c-2.833,7.277-4.76,15.593-5.315,27.771-.554,12.2-.686,16.1-.686,47.173s.132,34.969.686,47.173c.554,12.178,2.49,20.494,5.315,27.771a58.484,58.484,0,0,0,33.455,33.464c7.277,2.825,15.593,4.76,27.771,5.315,12.2.554,16.1.686,47.173.686s34.969-.132,47.173-.686c12.178-.554,20.494-2.49,27.771-5.315a58.532,58.532,0,0,0,33.464-33.464c2.825-7.277,4.76-15.593,5.315-27.771.554-12.2.686-16.1.686-47.173s-.132-34.969-.686-47.173c-.554-12.178-2.49-20.494-5.315-27.771a58.531,58.531,0,0,0-33.464-33.464c-7.277-2.825-15.592-4.76-27.771-5.315-12.2-.554-16.1-.686-47.173-.686" transform="translate(-94.715 -115.873)" fill="#fff"/>
    <path id="XMLID_1624_" d="M159.792,122.2a58.753,58.753,0,1,0,58.753,58.753A58.755,58.755,0,0,0,159.792,122.2m0,96.89a38.136,38.136,0,1,1,38.136-38.136,38.138,38.138,0,0,1-38.136,38.136" transform="translate(-45.392 -66.542)" fill="#fff"/>
    <path id="XMLID_1623_" d="M140.551,134.1a13.727,13.727,0,1,1-13.727-13.727A13.728,13.728,0,0,1,140.551,134.1" transform="translate(48.653 -80.768)" fill="#fff"/>
  </g>
</svg>
