<svg xmlns="http://www.w3.org/2000/svg" width="203.266" height="196.008" viewBox="0 0 203.266 196.008">
  <path id="icons8-linkedin" d="M50.387,65.31V203.242H6.83V65.31ZM6.83,25.165C6.83,15,15.541,7.234,28.608,7.234S49.878,15,50.387,25.165c0,10.163-8.131,18.367-21.778,18.367C15.541,43.532,6.83,35.328,6.83,25.165ZM210.1,203.242H166.539v-72.6c0-14.519-7.259-29.038-25.408-29.329h-.581c-17.568,0-24.827,14.955-24.827,29.329v72.6H72.165V65.31h43.557V83.895S129.733,65.31,157.9,65.31c28.82,0,52.2,19.819,52.2,59.964Z" transform="translate(-6.83 -7.234)" fill="#fff"/>
</svg>
