<svg xmlns="http://www.w3.org/2000/svg" xmlns:xlink="http://www.w3.org/1999/xlink" width="22" height="22" viewBox="0 0 22 22">
  <defs>
    <clipPath id="clip-path">
      <circle id="Ellipse_5" data-name="Ellipse 5" cx="11" cy="11" r="11" transform="translate(0 0.105)" fill="#fff"/>
    </clipPath>
    <clipPath id="clip-path-2">
      <path id="Path_668" data-name="Path 668" d="M0-68.555H7.033V-82.268H0Z" transform="translate(0 82.268)" fill="#fff"/>
    </clipPath>
  </defs>
  <g id="Frontline" transform="translate(-127 -6949.105)">
    <g id="Group_12940" data-name="Group 12940" transform="translate(127 6949)">
      <circle id="Ellipse_4" data-name="Ellipse 4" cx="11" cy="11" r="11" transform="translate(0 0.105)" fill="#d10a10"/>
    </g>
    <g id="Group_12942" data-name="Group 12942" transform="translate(-267.642 -172.821)">
      <g id="Group_4769" data-name="Group 4769" transform="translate(403.079 7130.381) rotate(90)">
        <g id="Group_4718" data-name="Group 4718" transform="translate(0 1.647)">
          <path id="Path_4" data-name="Path 4" d="M5.09,2.881,2.545,1.759,0,2.881V1.122L2.545,0,5.09,1.122Z" transform="translate(0 0)" fill="#fff"/>
        </g>
        <g id="Group_4719" data-name="Group 4719" transform="translate(0 0)">
          <path id="Path_5" data-name="Path 5" d="M2.545,1.01,0,2.133V1.123L2.545,0,5.089,1.123v1.01Z" transform="translate(0 0)" fill="#fff"/>
        </g>
      </g>
      <g id="Group_5054" data-name="Group 5054" transform="translate(403.079 7126.069)" clip-path="url(#clip-path-2)">
        <g id="Group_5053" data-name="Group 5053" transform="translate(0 0)">
          <path id="Path_667" data-name="Path 667" d="M0-47.867c.13,2.654,1.392,4.119,3.526,4.138a3.3,3.3,0,0,0,3.507-3.525,5.111,5.111,0,0,0-1.911-3.9L3.99-52.172c-.761-.687-1.15-1.15-1.15-1.856,0-.649.278-1.021.742-1.021.594,0,.816.612.928,1.559l2.412-.093c-.186-2.542-1.336-3.841-3.3-3.86A3.3,3.3,0,0,0,.2-53.842a4.708,4.708,0,0,0,1.707,3.674l1.132,1.021a2.785,2.785,0,0,1,1.243,2.041c0,.649-.316,1-.8,1-.649,0-.965-.668-1.113-1.874Z" transform="translate(0 57.442)" fill="#fff"/>
        </g>
      </g>
    </g>
  </g>
</svg>
