<svg xmlns="http://www.w3.org/2000/svg" width="209.449" height="197.626" viewBox="0 0 209.449 197.626">
  <path id="noun-telegram-4137491" d="M313.992,63.365,275.846,220.584a11.826,11.826,0,0,1-16.9,7.7L210.7,203.381,187.885,240.7c-6.207,10.173-21.914,5.76-21.914-6.134V192.983a11.89,11.89,0,0,1,3.665-8.526L263.655,94.7a1.566,1.566,0,0,0-2.467-1.272L148.995,171.517,111.3,152.07a11.81,11.81,0,0,1,.673-21.317l185.868-81A11.792,11.792,0,0,1,314,63.364Z" transform="translate(-104.898 -48.747)" fill="#fff"/>
</svg>
