<svg xmlns="http://www.w3.org/2000/svg" width="173.526" height="173.526" viewBox="0 0 173.526 173.526">
  <g id="Group_3204" data-name="Group 3204" transform="translate(-62.447 -63.819)">
    <path id="Path_4622" data-name="Path 4622" d="M86.763,0A86.763,86.763,0,1,1,0,86.763,86.763,86.763,0,0,1,86.763,0Z" transform="translate(62.447 63.82)" fill="#fff"/>
    <g id="Group_3191" data-name="Group 3191" transform="translate(89.175 119.641)">
      <g id="Group_3190" data-name="Group 3190" transform="translate(0 0)">
        <path id="Path_1171" data-name="Path 1171" d="M157.983,416.514c-1.863-9.315-4.813-16.379-16.69-16.379h-2.251c-.155,5.511-.233,12.5-.233,17.388v31.128c0,6.521,2.717,8.151,10.169,8.694v1.009s-12.188-.233-15.37-.233c-3.416,0-15.525.233-15.525.233v-1.009c7.608-.543,10.014-2.174,10.014-8.694V417.523c0-4.891-.077-11.023-.233-17.388H126c-13.2,0-14.982,6.443-17.078,16.379h-.776c0-2.406.078-8.85.078-11.877,0-2.406-.078-4.813-.078-6.909,3.8.388,7.375.465,9.393.465,2.562,0,8.151.156,11.489.156h9.083c3.182,0,8.927-.156,11.411-.156,1.863,0,5.356-.077,9.393-.465-.155,2.1-.155,4.5-.155,6.909,0,3.027,0,9.471.155,11.877Z" transform="translate(-108.147 -397.728)"/>
        <path id="Path_1172" data-name="Path 1172" d="M525.624,460.917q-7.219-.233-14.439-.233c-4.658,0-9.471.078-14.128.233v-1.009c6.6-.466,8.772-1.319,8.772-8.694V431.436c-4.658-.155-9.238-.155-13.9-.155-4.347,0-8.694.155-13.2.155v19.778c0,7.375,2.484,8.228,8.927,8.694v1.009c-4.813-.155-9.548-.233-14.283-.233-4.813,0-9.471.078-14.283.233v-1.009c6.521-.466,8.849-1.319,8.849-8.694v-40.6c0-7.53-2.251-8.384-8.849-8.694v-1.165c4.813.156,9.47.31,14.283.31,4.735,0,9.47-.155,14.283-.31v1.165c-6.6.311-8.927,1.32-8.927,8.694l-.007,16.989h11.644c5.123,0,10.246-.078,15.447-.078l.007-16.911c0-7.53-2.174-8.384-8.772-8.694v-1.165c4.657.156,9.47.31,14.128.31,4.813,0,9.626-.155,14.439-.31v1.165c-6.521.311-8.927,1.32-8.927,8.694v40.6c0,7.375,2.561,8.228,8.927,8.694Z" transform="translate(-405.147 -400.29)"/>
      </g>
    </g>
  </g>
</svg>
