<svg xmlns="http://www.w3.org/2000/svg" xmlns:xlink="http://www.w3.org/1999/xlink" width="207.677" height="237.963" viewBox="0 0 207.677 237.963">
  <defs>
    <clipPath id="clip-path">
      <rect id="Rectangle_18026" data-name="Rectangle 18026" width="207.677" height="237.963" fill="none"/>
    </clipPath>
  </defs>
  <g id="Group_50323" data-name="Group 50323" clip-path="url(#clip-path)">
    <path id="Path_24517" data-name="Path 24517" d="M104.534,237.963q-1.114,0-2.221-.018t-2.209-.053q-1.1-.036-2.195-.091t-2.181-.127q-1.089-.073-2.169-.164t-2.155-.2c-.716-.073-1.428-.152-2.14-.237s-1.418-.174-2.124-.271-1.408-.2-2.108-.31-1.4-.223-2.094-.344-1.386-.249-2.076-.38-1.378-.273-2.061-.419-1.363-.3-2.041-.453-1.353-.322-2.027-.492-1.341-.344-2.007-.526-1.329-.368-1.989-.562-1.317-.394-1.97-.6-1.3-.417-1.952-.635-1.291-.443-1.932-.674-1.277-.465-1.912-.708-1.262-.492-1.889-.747-1.25-.514-1.871-.781-1.236-.54-1.849-.819-1.222-.562-1.827-.854-1.208-.589-1.807-.892-1.192-.613-1.782-.929-1.177-.637-1.76-.965-1.161-.662-1.736-1-1.147-.686-1.713-1.038-1.131-.71-1.689-1.074-1.113-.734-1.663-1.111-1.1-.759-1.641-1.149-1.08-.783-1.612-1.183-1.064-.807-1.588-1.222-1.046-.831-1.562-1.256-1.028-.858-1.535-1.295-1.009-.882-1.509-1.331-.991-.906-1.479-1.368-.973-.931-1.453-1.406-.955-.955-1.426-1.44-.935-.979-1.394-1.479-.916-1-1.368-1.513-.9-1.03-1.337-1.552-.876-1.054-1.307-1.59-.856-1.076-1.277-1.624-.835-1.1-1.246-1.661-.815-1.127-1.214-1.7-.8-1.151-1.183-1.736-.773-1.175-1.151-1.772-.751-1.2-1.119-1.811-.728-1.224-1.084-1.845-.708-1.25-1.052-1.883-.686-1.274-1.02-1.92-.662-1.3-.985-1.958-.639-1.323-.949-1.993-.617-1.347-.916-2.031-.591-1.372-.878-2.068-.57-1.4-.846-2.1-.544-1.422-.807-2.142-.52-1.446-.771-2.179-.5-1.471-.734-2.215-.471-1.495-.7-2.254-.447-1.519-.659-2.29-.421-1.544-.621-2.326q-.17-.661-.332-1.325t-.32-1.331q-.158-.668-.307-1.337c-.1-.445-.2-.892-.3-1.339s-.19-.9-.281-1.343-.182-.9-.269-1.347-.174-.9-.259-1.351-.164-.9-.245-1.353-.156-.9-.233-1.357-.15-.9-.221-1.357-.142-.906-.21-1.361-.134-.906-.2-1.362-.127-.908-.188-1.363-.119-.908-.176-1.364-.111-.908-.164-1.363-.105-.91-.154-1.366-.1-.908-.144-1.364S.88,139.3.838,138.847s-.083-.908-.121-1.364-.077-.908-.113-1.361-.069-.906-.1-1.359-.063-.906-.093-1.357-.057-.9-.083-1.355L.253,130.7q-.033-.677-.063-1.349c-.02-.451-.036-.9-.055-1.347s-.03-.9-.045-1.343-.024-.894-.034-1.339-.02-.89-.028-1.335L.01,122.652Q0,121.988,0,121.327t0-1.319c0-.439,0-.878.008-1.315s.008-.872.014-1.307.014-.868.022-1.3.02-.864.032-1.295.024-.86.038-1.287.028-.856.045-1.281.034-.85.055-1.272.038-.844.061-1.264.042-.838.067-1.254.049-.833.075-1.246.053-.827.081-1.238.057-.821.087-1.228.063-.813.1-1.218.067-.807.1-1.208.069-.8.107-1.2S.961,100.3,1,99.912s.079-.785.119-1.175.081-.777.123-1.163.085-.769.129-1.151.089-.763.136-1.139.093-.755.14-1.127.1-.744.146-1.113.1-.736.15-1.1.1-.726.156-1.086.105-.718.158-1.072.109-.708.164-1.058.111-.7.17-1.044S2.7,87,2.761,86.655s.115-.68.176-1.014.119-.668.18-1,.121-.657.184-.981.123-.645.186-.965q.106-.537.221-1.08t.235-1.092q.121-.549.249-1.1c.087-.37.174-.742.265-1.117s.184-.749.279-1.127.194-.755.3-1.137.2-.761.31-1.145.214-.769.326-1.155.225-.775.342-1.163.235-.779.354-1.171.245-.783.372-1.177.255-.789.386-1.183.265-.793.4-1.192.277-.8.419-1.2.285-.8.431-1.2.3-.8.449-1.2.307-.805.463-1.208.318-.807.479-1.21.328-.809.5-1.214.338-.809.51-1.214.35-.811.528-1.216.358-.811.54-1.216.37-.811.558-1.216.38-.809.575-1.214.39-.809.589-1.214.4-.809.6-1.212.413-.807.621-1.21.423-.8.637-1.206.433-.8.653-1.2.445-.8.67-1.2.455-.8.686-1.192.465-.793.7-1.188.475-.789.716-1.181.488-.783.734-1.173.5-.779.751-1.165.508-.775.767-1.159.518-.769.783-1.149.53-.763.8-1.141.54-.757.815-1.131.552-.749.831-1.121.562-.74.848-1.109.575-.734.866-1.1.585-.724.88-1.084.6-.716.9-1.072.607-.708.914-1.058.619-.7.931-1.046.631-.69.949-1.03.641-.68.965-1.016.651-.668.981-1,.664-.657,1-.981.676-.647,1.016-.967.686-.633,1.032-.947.7-.623,1.05-.929.706-.611,1.066-.91.718-.6,1.082-.892.73-.583,1.1-.87.742-.57,1.117-.852.755-.554,1.135-.827.765-.542,1.151-.807.777-.526,1.167-.785.789-.512,1.187-.761.8-.5,1.2-.738.811-.479,1.22-.712.823-.463,1.238-.688q.655-.355,1.315-.7t1.321-.678q.665-.334,1.329-.657t1.337-.635c.445-.208.894-.413,1.341-.615s.9-.4,1.349-.595.9-.386,1.353-.573.9-.374,1.357-.554.908-.36,1.363-.534.91-.346,1.368-.514.914-.334,1.372-.5.914-.32,1.374-.475.918-.307,1.378-.457.918-.3,1.38-.437.92-.283,1.382-.421.92-.269,1.382-.4.925-.259,1.386-.382.922-.247,1.384-.366.925-.235,1.386-.348.925-.223,1.386-.33.922-.212,1.384-.314.922-.2,1.384-.3.922-.19,1.382-.279.923-.178,1.382-.265.918-.166,1.378-.247.916-.158,1.376-.231.914-.148,1.372-.216.912-.136,1.368-.2.91-.125,1.366-.186.908-.115,1.359-.17.9-.105,1.355-.156.9-.1,1.349-.14.9-.087,1.345-.127S95.251.459,95.7.423s.89-.067,1.331-.1.884-.061,1.325-.085.88-.051,1.317-.073.874-.04,1.309-.059.868-.032,1.3-.047.864-.024,1.293-.032.856-.016,1.283-.02S105.7,0,106.127,0s.844,0,1.264,0,.836.008,1.252.016.829.014,1.242.026.821.022,1.23.036.815.03,1.218.049.807.038,1.208.061.8.045,1.194.071.789.051,1.181.079.781.059,1.167.091.771.065,1.153.1S119,.6,119.377.643s.751.079,1.123.119.742.085,1.111.129.73.089,1.092.136.722.1,1.078.148.71.1,1.062.154.7.107,1.044.162.688.113,1.026.172.676.117,1.009.178.664.123.991.186.651.127.973.194.639.131.953.2c.4.085.793.172,1.187.261s.787.178,1.177.269.779.184,1.165.277l1.157.285q.577.146,1.147.3t1.135.3c.378.1.753.206,1.127.31s.746.212,1.117.32.74.216,1.107.326.734.223,1.1.336.726.229,1.086.344.72.233,1.078.352.714.239,1.068.36.708.245,1.058.37.7.249,1.05.376.694.257,1.04.386.688.261,1.03.394.684.267,1.022.4.678.273,1.014.411.67.279,1,.421.664.285.993.431.657.289.985.437.651.3.975.447.647.3.967.457.641.307.959.463.635.316.949.475.629.32.943.481l.931.492c.31.166.619.334.925.5s.611.338.914.51.607.344.908.52.6.35.9.528.595.356.89.538.589.362.882.546.583.368.872.556.579.374.866.564.573.382.858.575.568.388.85.585.562.392.842.593.556.4.833.6.552.407.825.613.546.413.817.621.542.419.811.631.536.427.8.641.53.433.8.651.526.439.787.66.522.445.781.67.516.453.773.682.51.457.765.688.506.465.759.7.5.471.751.71.5.477.742.718.494.486.738.73.488.49.728.738.484.5.722.749.479.506.716.761.473.51.71.769.469.518.7.779.465.526.7.789.459.532.688.8.455.538.682.809.453.546.676.821.447.55.67.829.443.558.664.842.461.6.69.894.451.6.674.894.441.6.658.894.431.6.641.894.421.595.627.89.411.595.611.89.4.593.6.888.39.591.583.884.38.589.566.882.37.587.552.878.36.585.538.874.35.581.522.87.342.579.51.866.332.573.5.86.324.57.481.854.314.566.467.848.305.562.455.842.3.556.441.833.287.552.429.827.279.546.415.819.271.542.4.809.261.536.39.8.253.53.376.793l.366.783c.119.259.237.518.352.773l.342.765q.167.379.328.753c.109.249.214.5.318.74s.206.488.307.728.2.481.3.718.19.471.283.7.184.463.273.692.176.455.261.68.17.445.253.664l.241.651c.079.212.156.425.231.635s.148.415.221.619.142.407.21.607.136.394.2.589.129.384.192.573.121.372.182.556.115.362.172.538.109.35.164.52.1.34.154.5.1.326.146.486.093.314.138.465.087.3.127.445.081.287.121.427.075.273.111.407.071.259.105.384.065.247.1.364.061.233.089.344.055.216.081.32.051.2.075.3.045.188.067.275.04.172.061.253.034.158.053.229.032.142.047.206.026.123.04.18.022.107.032.156l.028.129.02.1c.008.032.012.057.016.079l.01.053-.312.061-.31.061-.312.061-.312.061-.312.061-.312.061-.312.061-.312.061-.312.061-.31.061-.312.061-.312.061-.312.061-.312.061-.312.061-.312.061-.312.061-.312.061-.312.061-.31.061-.312.061-.312.061-.312.061-.312.061-.312.061-.312.061-.31.061-.312.061-.312.061-.312.061-.312.061-.312.061-.312.061-.312.063-.312.061-.31.061-.312.061-.312.061-.312.061-.312.061-.312.061-.312.061-.312.061-.312.061-.31.061-.312.061-.312.061-.312.061-.312.061-.312.061-.312.061-.312.061-.31.061-.312.061-.312.061-.312.061-.312.061-.312.061-.312.061-.312.061-.312.061-.31.061-.312.061-.312.061.156-.03.156-.03.156-.03.156-.03.156-.03.156-.03.154-.03.156-.03.156-.03.156-.03.156-.03.156-.03.156-.03.156-.03.156-.03.156-.03.156-.03.156-.03.156-.03.156-.03.156-.03.156-.03.156-.03.154-.03.156-.03.156-.03.156-.03.156-.03.156-.03.156-.03.156-.03.156-.03.156-.03.156-.03.156-.03.156-.03.156-.03.156-.03.156-.03.154-.03.156-.03.156-.03.156-.03.156-.03.156-.03.156-.03.156-.03.156-.03.156-.03.156-.03.156-.03.156-.03.156-.03.156-.03.156-.03.156-.03.156-.03.154-.03.156-.03.156-.03.156-.032.156-.03.156-.03.156-.03-.156.032-.156.03-.154.03-.156.032-.156.03-.156.03-.156.032-.156.03-.156.03-.156.032-.156.03-.154.03-.156.03-.156.032-.156.03-.156.03-.156.032-.156.03-.156.03-.156.032-.154.03-.156.03-.156.032-.156.03-.156.03-.156.03-.156.032-.156.03-.154.03-.156.032-.156.03-.156.03-.156.032-.156.03-.156.03-.156.032-.156.03-.154.03-.156.032-.156.03-.156.03-.156.03-.156.032-.156.03-.156.03-.154.032-.156.03-.156.03-.156.032-.156.03-.156.03-.156.032-.156.03-.156.03-.154.03-.156.032-.156.03-.156.03-.156.032-.156.03-.156.03-.156.032-.154.03-.156.03,0-.018-.01-.04-.012-.061-.018-.083c-.008-.032-.016-.067-.024-.105s-.018-.079-.03-.123-.02-.093-.034-.146l-.038-.164c-.014-.059-.03-.119-.046-.184s-.032-.134-.051-.2-.038-.144-.059-.221-.04-.158-.063-.241-.045-.17-.069-.259-.051-.18-.077-.275-.053-.192-.083-.293-.057-.2-.087-.31-.063-.216-.1-.328-.069-.227-.1-.344-.071-.237-.109-.358-.077-.247-.115-.374-.081-.259-.123-.39-.085-.267-.131-.4-.089-.277-.138-.419-.1-.287-.144-.435-.1-.3-.154-.447-.105-.3-.16-.459-.111-.314-.17-.473-.115-.324-.176-.488-.121-.33-.184-.5l-.192-.512c-.067-.172-.134-.346-.2-.522s-.138-.354-.208-.534-.146-.36-.218-.544-.15-.368-.227-.554-.156-.376-.237-.566-.162-.382-.245-.575-.168-.388-.253-.585-.174-.394-.263-.595-.18-.4-.273-.6l-.281-.611q-.143-.307-.291-.619c-.1-.208-.2-.417-.3-.627s-.206-.421-.312-.635-.21-.425-.32-.641-.218-.431-.332-.647-.225-.435-.34-.653-.233-.441-.352-.662-.239-.443-.362-.666-.247-.447-.372-.672-.253-.449-.382-.676-.261-.453-.395-.682-.267-.455-.4-.684-.275-.459-.415-.69l-.427-.692c-.146-.231-.291-.463-.439-.694s-.3-.465-.449-.7-.305-.465-.461-.7-.314-.467-.473-.7-.32-.469-.484-.7-.33-.471-.5-.706-.336-.471-.508-.706-.344-.471-.52-.708-.354-.471-.534-.706-.36-.473-.544-.708-.35-.445-.524-.666-.352-.439-.53-.657-.354-.433-.532-.647-.36-.427-.54-.639-.36-.423-.542-.631-.364-.417-.548-.623-.368-.411-.554-.613-.37-.4-.558-.607-.374-.4-.562-.6-.378-.394-.568-.589-.382-.388-.575-.581-.386-.384-.581-.575-.388-.376-.585-.564-.392-.372-.591-.556-.4-.368-.595-.548-.4-.362-.6-.542-.4-.356-.609-.532-.407-.352-.613-.526-.413-.346-.619-.516-.417-.342-.627-.51-.419-.336-.631-.5-.425-.332-.637-.494-.429-.326-.645-.488l-.651-.479c-.216-.158-.437-.316-.655-.471s-.443-.31-.666-.463-.445-.305-.67-.455-.449-.3-.678-.449-.453-.3-.684-.443-.459-.289-.69-.433-.463-.287-.7-.427-.467-.281-.7-.421l-.712-.413c-.239-.136-.477-.271-.718-.4s-.483-.267-.726-.4-.488-.263-.734-.392-.492-.257-.74-.384-.5-.253-.749-.376-.5-.249-.755-.372-.508-.243-.765-.362-.512-.241-.771-.358-.518-.235-.779-.35-.522-.231-.787-.344-.528-.225-.8-.336-.532-.223-.8-.33-.54-.218-.811-.324-.546-.212-.819-.318-.55-.208-.827-.312l-.835-.3c-.281-.1-.562-.2-.846-.3s-.566-.2-.852-.291-.573-.192-.862-.285-.579-.188-.87-.279-.583-.184-.878-.273-.591-.178-.888-.267l-.9-.261c-.3-.085-.6-.17-.9-.253s-.609-.168-.914-.249-.615-.164-.924-.243-.619-.16-.933-.237-.625-.156-.943-.231-.631-.152-.951-.225-.639-.148-.961-.221l-.969-.212c-.283-.061-.568-.121-.856-.18s-.575-.115-.868-.17-.585-.111-.88-.164-.595-.105-.9-.156-.6-.1-.908-.148-.611-.093-.92-.138-.619-.089-.933-.131-.627-.083-.943-.121-.637-.079-.957-.115-.643-.071-.967-.105-.649-.065-.977-.1-.657-.061-.989-.087-.664-.055-1-.079-.67-.047-1.007-.069-.676-.04-1.018-.059-.682-.036-1.026-.051-.688-.03-1.034-.042-.694-.022-1.042-.03-.7-.016-1.05-.022-.7-.008-1.058-.01-.708,0-1.064,0-.714,0-1.072.008-.716.012-1.076.02-.722.016-1.084.028-.724.024-1.088.04-.728.03-1.094.051-.732.038-1.1.061-.734.047-1.1.071-.738.055-1.109.083-.74.061-1.111.1-.742.067-1.115.105-.744.075-1.117.115-.746.083-1.121.127-.746.091-1.121.14-.751.1-1.125.152-.751.107-1.125.162-.751.115-1.127.176-.753.121-1.127.186-.753.131-1.129.2-.753.14-1.127.212-.753.146-1.129.223-.751.156-1.125.237-.753.164-1.127.249-.749.172-1.123.261-.749.182-1.123.275-.746.188-1.121.287-.744.2-1.117.3-.744.208-1.115.314-.742.216-1.111.328-.74.225-1.109.34-.736.235-1.1.354-.734.243-1.1.368-.73.253-1.094.382-.728.261-1.088.394-.724.271-1.084.409-.72.281-1.078.425-.714.289-1.07.437-.712.3-1.066.453-.706.307-1.056.467-.7.318-1.052.481-.7.328-1.042.5-.69.338-1.034.512-.686.348-1.026.526-.68.358-1.018.54-.68.374-1.016.566-.668.39-1,.591-.657.4-.983.613-.645.419-.965.635-.637.433-.951.655-.627.449-.935.678-.615.463-.92.7-.6.473-.9.716-.595.488-.888.736-.585.5-.874.755-.573.512-.856.773-.564.524-.844.789-.552.534-.825.805-.544.544-.813.821-.532.554-.8.835-.524.562-.783.848-.512.575-.767.864-.5.581-.751.874-.494.591-.736.888-.484.6-.722.9-.473.6-.708.91-.463.611-.692.918-.455.617-.68.929-.445.623-.664.937-.435.627-.649.945-.425.633-.635.951-.417.637-.621.959-.407.641-.607.963-.4.645-.593.969-.388.649-.579.973-.378.651-.564.977-.37.653-.55.981-.36.653-.538.981-.35.655-.522.983-.342.657-.51.985-.334.657-.5.985-.326.657-.484.985-.316.655-.469.983-.305.655-.455.981-.3.653-.443.979-.287.651-.429.977-.279.647-.417.971-.269.645-.4.967-.261.643-.388.963-.255.637-.378.955-.245.635-.364.951-.235.629-.35.941-.229.625-.34.935-.218.617-.326.925-.21.613-.314.916-.2.6-.3.9-.194.6-.289.9-.186.591-.275.882-.178.583-.263.872-.17.575-.251.858-.162.566-.241.846-.154.554-.227.829-.146.546-.214.815-.138.536-.2.8-.129.526-.19.785-.121.514-.18.765-.113.5-.168.751-.105.49-.156.728-.1.477-.144.712c-.055.271-.107.546-.16.823s-.105.556-.158.84-.1.568-.154.858-.1.579-.152.872-.1.591-.148.89-.1.6-.146.9-.1.609-.142.918-.093.621-.14.935-.089.629-.134.947-.089.639-.131.963-.085.647-.127.975-.081.657-.121.989-.081.666-.119,1-.077.676-.113,1.016-.075.682-.109,1.026-.071.692-.105,1.04-.067.7-.1,1.05-.063.7-.093,1.06-.063.712-.091,1.072-.057.718-.085,1.08-.053.726-.079,1.092-.051.732-.073,1.1-.047.738-.069,1.111-.042.744-.061,1.121-.038.751-.057,1.127-.034.757-.049,1.137-.03.761-.045,1.143-.026.767-.036,1.151-.022.771-.03,1.157-.016.777-.024,1.165-.012.781-.016,1.171-.008.783-.01,1.177,0,.787,0,1.181,0,.791.006,1.187.006.8.012,1.194.012.8.02,1.2.016.8.026,1.2l.036,1.206q.021.6.045,1.208c.016.4.032.807.053,1.212s.038.809.061,1.214.045.811.069,1.216.051.813.077,1.218.057.813.087,1.22.063.813.1,1.222.069.813.105,1.222.075.813.113,1.222.081.813.125,1.222.087.813.131,1.222.1.813.144,1.22.1.815.152,1.222.107.811.164,1.218.113.811.172,1.218.121.809.184,1.214.127.809.192,1.214.136.805.2,1.21.142.8.214,1.206.15.8.227,1.2.156.8.237,1.2.164.8.249,1.2.17.793.259,1.19.178.791.271,1.185.186.787.281,1.179.194.783.3,1.173.2.781.305,1.167.21.773.32,1.157.216.767.328,1.147.227.759.342,1.135.233.751.352,1.123.239.744.362,1.113.249.736.374,1.1.255.73.386,1.09.263.722.4,1.08.271.714.409,1.068.277.708.419,1.058.285.7.431,1.046.293.692.443,1.036.3.684.453,1.024.307.678.463,1.014.316.67.477,1,.322.664.486.991.33.655.5.979.338.647.51.969.346.639.52.957.354.633.532.945.36.627.542.937.368.617.554.922.374.609.564.912.382.6.577.9.39.595.589.89.4.587.6.878.4.581.611.868.411.572.619.856.421.564.633.844.427.558.641.833.435.55.655.821.441.542.664.811.449.534.676.8.457.526.688.787.463.52.7.777.471.512.708.765.479.5.72.755.486.5.73.742.494.488.742.73.5.481.755.718.506.473.763.708.516.467.775.7.522.459.787.686.528.451.8.674.536.443.807.662.544.435.819.649.55.429.829.639.558.421.84.627.566.413.852.617.573.4.862.6.581.4.874.593.587.388.884.581.595.38.894.568.6.374.906.558.609.366.916.546.617.36.929.536.623.35.939.522.629.344.949.512.637.336.959.5.645.328.971.488.653.322.981.477.66.312.993.465.668.3,1,.453q.57.252,1.147.5c.382.162.767.322,1.153.475s.773.31,1.159.459.777.3,1.167.439.781.283,1.171.419.785.271,1.177.4.789.259,1.183.384.791.245,1.188.364.793.233,1.192.346.8.223,1.2.33.8.21,1.2.312.8.2,1.2.293.8.188,1.2.277.805.176,1.208.261.805.166,1.21.243.807.156,1.21.229.807.144,1.212.212.809.131,1.214.194.809.123,1.212.182.809.113,1.214.164.809.1,1.214.152.809.093,1.212.136.809.083,1.212.119.807.075,1.21.107.805.065,1.208.093.805.055,1.206.079.8.047,1.2.065.8.038,1.2.053.8.028,1.2.038.8.02,1.194.026.793.012,1.19.014.791,0,1.183,0,.789-.006,1.181-.012.783-.012,1.173-.022.781-.02,1.169-.034.777-.028,1.163-.044.773-.036,1.157-.057.767-.045,1.149-.069.763-.049,1.143-.077.759-.057,1.135-.089.753-.063,1.127-.1.749-.071,1.119-.109.742-.077,1.111-.117.736-.085,1.1-.127.728-.091,1.09-.138.724-.1,1.082-.146.716-.1,1.072-.154.71-.107,1.062-.162.7-.113,1.05-.17.694-.117,1.038-.178.688-.123,1.028-.188.68-.127,1.016-.192l1-.2c.332-.069.662-.138.989-.208s.653-.142.977-.214.643-.146.963-.221.635-.15.949-.227.625-.154.935-.233.615-.16.92-.239.6-.162.9-.245l.888-.249q.443-.124.874-.255c.289-.085.575-.172.858-.259s.562-.174.84-.263.552-.178.827-.271.55-.188.823-.287.548-.2.821-.3.546-.206.817-.314.544-.218.815-.33.542-.227.811-.344.538-.235.807-.356.536-.245.8-.37.534-.255.8-.384.532-.261.8-.4.528-.269.791-.409.524-.277.783-.421.522-.287.781-.433.516-.3.773-.445.514-.3.769-.457.51-.31.763-.467.5-.318.755-.479.5-.326.751-.49.5-.332.742-.5.492-.338.736-.51.486-.346.728-.522.481-.352.72-.532.477-.358.712-.54.471-.366.706-.55.465-.372.7-.56.461-.376.69-.568.453-.382.68-.577.447-.388.67-.585.443-.395.661-.595.437-.4.651-.6.431-.4.641-.609.425-.411.633-.617.417-.415.621-.625.411-.419.613-.631.4-.423.6-.637.4-.427.591-.643.386-.433.579-.651.38-.435.566-.655.372-.441.554-.662.364-.445.544-.668.356-.447.53-.674.348-.451.52-.678.338-.453.506-.682.33-.457.492-.688.324-.459.479-.692.314-.461.467-.694.3-.465.453-.7.293-.467.437-.7.285-.469.425-.706.275-.471.411-.708.265-.475.395-.712.255-.475.38-.714.245-.477.364-.716.237-.479.35-.72.225-.479.334-.72.214-.481.318-.72.2-.484.3-.724.194-.484.285-.724.182-.483.269-.726.17-.483.251-.724.16-.484.235-.726.148-.486.216-.726.136-.483.2-.726.123-.484.18-.726c.075-.312.146-.621.214-.931s.133-.617.194-.925.121-.613.178-.916.109-.609.16-.91.1-.6.144-.9.087-.6.125-.9.075-.595.107-.89.065-.589.093-.882.051-.585.073-.876.04-.581.057-.87.03-.575.04-.86.018-.571.024-.856.006-.564.006-.846,0-.562-.01-.842-.014-.556-.026-.831-.026-.552-.045-.825-.036-.546-.059-.817-.047-.542-.075-.811-.059-.536-.093-.8-.069-.532-.107-.8-.081-.528-.123-.789-.091-.522-.14-.781-.1-.516-.156-.773-.113-.512-.172-.765-.121-.506-.188-.759-.132-.5-.2-.749-.142-.5-.219-.742-.152-.492-.233-.734-.164-.486-.249-.726-.174-.481-.263-.72-.184-.475-.279-.71-.194-.469-.3-.7-.2-.465-.308-.7-.214-.459-.324-.686-.225-.455-.34-.68-.233-.447-.352-.67-.243-.443-.368-.664-.253-.437-.382-.653-.263-.433-.4-.645-.271-.427-.411-.639-.281-.421-.425-.629-.291-.415-.439-.621-.3-.409-.455-.613-.308-.4-.467-.6-.318-.4-.479-.6-.328-.392-.5-.587-.336-.388-.508-.579-.346-.382-.522-.57-.356-.376-.536-.562-.364-.368-.55-.552-.372-.364-.562-.544-.38-.358-.575-.536-.39-.352-.589-.526-.4-.346-.6-.518-.409-.34-.615-.508-.417-.336-.627-.5-.425-.328-.641-.49-.433-.324-.653-.483-.441-.316-.666-.471-.449-.312-.678-.465-.459-.3-.69-.453-.467-.3-.7-.447-.473-.293-.714-.437-.483-.285-.728-.427c-.051.344-.1.684-.156,1.024s-.109.68-.166,1.018-.117.674-.178,1.007-.121.668-.186,1-.129.664-.2.991-.136.657-.206.983-.144.649-.218.973-.15.645-.229.965-.156.639-.237.957-.164.633-.249.949-.17.627-.259.939-.176.621-.267.929-.184.615-.279.92-.19.609-.289.912-.2.6-.3.9-.2.6-.307.892-.21.591-.318.884-.219.585-.328.874-.225.577-.338.864-.231.57-.348.854-.237.566-.356.846-.243.558-.366.835-.251.55-.376.823-.257.546-.386.815-.261.538-.395.805-.269.532-.4.8-.275.524-.415.785-.281.518-.425.773-.285.512-.433.765-.293.5-.441.753-.3.5-.453.742-.305.49-.459.732-.314.481-.471.72-.318.475-.479.71-.324.467-.488.7-.332.459-.5.688-.338.453-.508.676-.342.447-.516.668-.348.437-.524.653-.354.431-.534.643-.36.423-.542.631-.366.417-.552.621-.372.407-.56.609-.378.4-.57.6-.382.392-.577.585-.39.384-.587.575-.4.376-.6.56-.4.368-.6.55-.407.36-.613.536-.413.352-.621.526-.419.344-.629.512-.425.336-.639.5-.429.326-.647.488-.435.32-.655.475-.441.31-.664.463-.447.3-.672.449-.453.293-.682.437-.457.285-.688.425-.465.277-.7.413-.469.267-.706.4-.473.259-.714.384-.479.251-.72.372-.486.243-.73.36-.492.233-.738.346c-.368.168-.74.332-1.113.492s-.746.314-1.121.461-.755.3-1.133.435-.759.277-1.141.407-.763.257-1.147.38-.771.239-1.157.35-.773.221-1.161.324-.779.2-1.169.3-.783.184-1.175.269-.785.166-1.179.243-.789.148-1.183.214-.791.132-1.187.19-.8.111-1.192.162-.8.1-1.194.136-.8.079-1.194.111-.8.061-1.2.083-.8.044-1.2.059-.8.026-1.2.034-.8.008-1.2.008-.8-.008-1.194-.018-.8-.024-1.194-.042-.793-.04-1.188-.067-.793-.057-1.188-.091-.787-.075-1.181-.117-.785-.089-1.177-.14-.783-.105-1.171-.164-.779-.123-1.167-.19-.773-.138-1.159-.21-.769-.154-1.151-.237-.765-.168-1.145-.259-.759-.184-1.137-.281-.753-.2-1.127-.305-.746-.214-1.117-.328-.74-.231-1.107-.352-.734-.245-1.1-.372-.724-.259-1.084-.394-.716-.275-1.072-.419-.708-.289-1.06-.439-.7-.3-1.044-.461-.692-.318-1.032-.481-.68-.334-1.018-.5-.67-.348-1-.526-.657-.36-.983-.546-.649-.374-.969-.566-.637-.388-.951-.589-.625-.4-.933-.607-.613-.417-.914-.629-.6-.429-.894-.647-.587-.443-.876-.67-.573-.455-.854-.688-.558-.469-.833-.708-.544-.481-.811-.726-.528-.5-.787-.746-.516-.508-.767-.767-.5-.518-.742-.783-.481-.532-.716-.8-.465-.544-.692-.821-.449-.556-.668-.84-.431-.57-.639-.858-.415-.583-.615-.876-.394-.593-.585-.894-.376-.6-.558-.912-.356-.615-.528-.929-.338-.627-.5-.945c-.089-.176-.176-.352-.263-.528s-.17-.354-.253-.532-.166-.356-.245-.534-.16-.358-.237-.538-.154-.36-.229-.54-.146-.362-.218-.544-.142-.362-.208-.546-.138-.364-.2-.548-.129-.366-.192-.55-.125-.368-.184-.554-.119-.37-.176-.556-.111-.37-.166-.556-.107-.374-.158-.56-.1-.374-.148-.562-.1-.376-.142-.564-.089-.376-.132-.564-.083-.378-.123-.566-.077-.378-.113-.568-.071-.38-.105-.57-.067-.378-.1-.568-.059-.382-.087-.573-.055-.382-.079-.572-.049-.382-.071-.573-.042-.384-.063-.575-.036-.382-.053-.575-.03-.384-.045-.575-.026-.384-.036-.575-.018-.384-.026-.577-.014-.384-.018-.575-.008-.384-.01-.577,0-.382,0-.575,0-.384.006-.575.01-.384.016-.575.016-.382.026-.575.02-.382.032-.572l.042-.572c.016-.19.034-.382.053-.573s.038-.38.059-.57.044-.378.069-.568.051-.378.077-.568.057-.378.085-.566.063-.376.1-.564.067-.376.1-.564.073-.374.111-.56.079-.374.121-.56.083-.372.127-.558.091-.37.138-.554.1-.37.148-.554.1-.368.154-.55.107-.366.164-.55.113-.364.172-.544.119-.364.18-.544.125-.36.19-.54.129-.358.2-.538.136-.356.206-.534.142-.354.214-.53.148-.354.225-.528.154-.35.233-.524.16-.348.241-.522.166-.344.249-.516.172-.344.259-.514.176-.34.267-.51.182-.336.275-.5.188-.336.285-.5c.065-.113.131-.229.2-.344s.14-.235.21-.352.148-.239.223-.358l.233-.366q.118-.185.243-.37c.083-.125.168-.251.253-.378s.174-.253.265-.382.182-.257.275-.386.19-.259.287-.39.2-.263.3-.4.2-.265.31-.4.212-.269.322-.4.218-.269.332-.4.229-.273.346-.409.237-.275.358-.413l.368-.413c.125-.138.253-.275.384-.415s.261-.277.394-.415.271-.279.409-.417.279-.279.421-.417.289-.279.435-.419.3-.277.449-.417.305-.277.461-.417.316-.277.477-.415.324-.275.49-.413.334-.275.506-.413.342-.275.518-.411.354-.271.534-.407.362-.271.548-.407.372-.267.562-.4.384-.265.579-.4.394-.263.595-.392.4-.261.609-.39.415-.257.625-.384.425-.255.641-.38.435-.251.657-.374.447-.247.674-.368.457-.243.69-.362.467-.239.706-.356.479-.235.724-.35.49-.229.74-.34.5-.225.757-.334.514-.221.775-.328.526-.212.793-.316.536-.208.811-.31.548-.2.827-.3.56-.194.846-.289.573-.188.864-.281.587-.18.884-.269.6-.174.9-.259.611-.168.92-.249.623-.16.941-.237.635-.152.957-.225.649-.144.979-.212.662-.136,1-.2.674-.127,1.018-.188.688-.117,1.036-.174.7-.109,1.058-.16.714-.1,1.076-.148.728-.091,1.1-.132.742-.081,1.119-.117.755-.071,1.139-.1.769-.061,1.159-.087.785-.051,1.181-.071l.562-.03.562-.026c.186-.01.372-.018.558-.026l.558-.024.558-.022c.184-.008.37-.014.554-.02s.37-.014.554-.02l.552-.018c.184,0,.366-.01.55-.016s.366-.008.548-.014l.548-.012c.182,0,.364-.008.546-.01s.362-.008.544-.01l.542-.008.542-.006c.18,0,.36,0,.538,0l.54,0h1.07l.534,0c.178,0,.354,0,.532,0l.53,0,.53.008.526.008.526.01.524.012c.176,0,.35.008.524.014l.52.014c.174.006.346.012.52.016s.346.012.518.02l.516.018.516.022.512.024.512.024.51.026.51.028.506.03.506.03.5.034c.168.01.336.022.5.034l.5.036c.166.012.332.024.5.038l.5.038.5.042.494.042c.164.014.33.028.494.045s.328.03.49.047.328.03.49.047.326.032.49.051.324.032.486.051.324.034.486.053l.484.055.481.055.479.059c.16.018.32.038.479.059l.475.061.475.063c.158.02.318.042.473.065s.316.042.473.065l.469.067c.158.024.314.047.469.069s.312.049.467.071l.465.073.465.073c-.032-.19-.065-.38-.1-.573s-.069-.382-.105-.575-.073-.386-.109-.581-.079-.386-.119-.581-.081-.388-.123-.585-.087-.39-.134-.587-.091-.39-.14-.587-.1-.392-.148-.589-.1-.392-.156-.591l-.164-.589c-.057-.2-.113-.394-.172-.591s-.119-.392-.182-.589-.125-.392-.19-.589-.129-.392-.2-.589-.138-.39-.208-.585-.142-.39-.216-.585-.15-.388-.227-.583-.156-.386-.237-.579-.162-.384-.247-.577-.168-.382-.255-.573-.176-.38-.267-.568-.184-.378-.277-.566-.19-.374-.287-.56-.2-.37-.3-.554-.2-.368-.31-.55-.212-.364-.322-.544-.218-.36-.332-.538-.229-.356-.344-.532-.235-.35-.356-.524-.243-.346-.368-.518-.251-.342-.38-.51-.259-.336-.392-.5-.267-.332-.4-.494-.277-.326-.419-.486-.285-.318-.431-.475-.293-.312-.443-.465-.3-.307-.457-.457-.314-.3-.471-.445-.322-.293-.486-.437-.33-.283-.5-.423-.34-.277-.514-.413-.348-.269-.526-.4-.36-.261-.542-.388-.368-.253-.556-.376-.378-.243-.573-.362-.388-.237-.587-.35-.4-.227-.6-.336-.409-.218-.617-.324-.419-.206-.633-.308-.429-.2-.647-.291-.441-.188-.666-.277-.451-.178-.682-.263-.461-.166-.7-.245-.471-.156-.712-.231-.486-.144-.732-.212-.5-.134-.746-.2-.508-.121-.767-.178-.518-.109-.781-.16-.532-.1-.8-.142-.542-.085-.817-.121-.554-.073-.835-.105-.566-.059-.856-.085-.577-.047-.872-.065-.591-.032-.89-.045q-.41-.015-.813-.024c-.269-.006-.536-.012-.8-.014s-.526,0-.787,0-.518,0-.773.01-.51.01-.761.02-.5.018-.748.03-.492.026-.734.042-.486.032-.724.053-.475.038-.71.063-.465.047-.7.071-.459.055-.686.083-.451.061-.674.093-.443.065-.659.1-.435.071-.649.109-.427.079-.637.119-.419.085-.625.129-.411.089-.615.138-.4.1-.6.144-.4.1-.591.154-.388.107-.579.162-.38.111-.568.168-.374.117-.556.178-.366.121-.546.182-.358.127-.536.192-.35.129-.524.2-.344.136-.512.2-.338.14-.5.212-.33.144-.492.216-.324.148-.481.223-.318.152-.473.229-.31.156-.461.235-.3.16-.451.241-.3.162-.441.245-.289.166-.431.249-.283.17-.423.255-.277.172-.413.259-.269.176-.4.263-.263.178-.392.269-.259.18-.384.271-.253.182-.376.275-.245.186-.364.279-.241.186-.358.281-.233.19-.348.285l-.34.287c-.111.1-.221.194-.33.291s-.216.194-.322.293-.21.2-.314.3-.2.2-.305.3-.2.2-.3.3-.194.2-.289.3-.188.2-.281.3l-.273.3c-.089.1-.178.2-.265.3s-.172.2-.257.305-.168.2-.251.305-.162.2-.243.305-.158.2-.235.305-.154.2-.229.305-.148.2-.221.3l-.214.305q-.106.152-.206.3t-.2.3c-.065.1-.129.2-.194.3s-.125.2-.186.3l-.271-.166-.269-.166-.271-.166-.271-.166-.269-.166-.271-.166-.271-.166-.269-.166-.271-.166-.271-.166-.269-.166-.271-.164-.271-.166-.271-.166-.269-.166-.271-.166-.271-.166-.269-.166-.271-.166-.271-.166-.269-.166-.271-.166-.271-.166-.269-.166-.271-.164-.271-.166-.269-.166-.271-.166-.271-.166-.269-.166-.271-.166-.271-.166-.269-.166-.271-.166-.271-.166L70.1,83.1l-.271-.168-.271-.164-.269-.166-.271-.166-.271-.166-.269-.166-.271-.166-.271-.166-.269-.166-.271-.166-.271-.166-.269-.166-.271-.166-.271-.166-.269-.164-.271-.166-.271-.166-.271-.166-.269-.166-.271-.166-.271-.166-.269-.166-.271-.166-.271-.166-.269-.166-.271-.166-.271-.166-.269-.164c.069-.115.142-.231.214-.348s.15-.239.229-.36.16-.247.243-.374.168-.255.257-.384.178-.263.269-.4l.285-.407c.1-.138.2-.277.3-.419s.206-.283.314-.427.214-.289.328-.437.225-.293.342-.443.237-.3.358-.453.245-.3.372-.457.257-.31.388-.465.267-.314.4-.471.277-.318.419-.477.287-.32.435-.479.3-.324.451-.486.31-.326.467-.488.32-.328.483-.492.33-.328.5-.492.342-.33.518-.494.352-.33.532-.5.364-.33.55-.5.376-.33.568-.494.386-.33.585-.494.4-.328.6-.492.409-.326.619-.488.423-.326.637-.488.435-.322.655-.481.447-.32.674-.477.459-.318.692-.473.471-.314.71-.467.483-.31.728-.463.5-.3.748-.453.508-.3.767-.447.52-.3.785-.441.534-.287.805-.429.546-.283.823-.423.56-.275.844-.411.573-.269.864-.4.587-.263.884-.39.6-.253.9-.378.611-.245.922-.364.627-.237.945-.352.639-.229.965-.34.653-.218.985-.324.666-.208,1.005-.31.682-.2,1.028-.293.694-.188,1.048-.277.71-.178,1.07-.261.724-.166,1.09-.245.738-.152,1.113-.225.753-.14,1.135-.206.769-.127,1.157-.186.783-.115,1.179-.168.8-.1,1.2-.148.811-.087,1.224-.123.827-.073,1.246-.105.842-.057,1.268-.081.858-.042,1.293-.057.874-.028,1.317-.034.888-.01,1.337-.01.9.006,1.363.016.92.022,1.386.04q.649.024,1.293.063t1.279.093q.637.052,1.266.119t1.25.15q.622.079,1.236.176c.411.063.817.132,1.222.2s.807.15,1.208.233.8.168,1.192.259.787.186,1.177.285.777.2,1.163.312.767.223,1.145.34.757.241,1.131.366.746.257,1.115.392.736.275,1.1.419.724.291,1.082.445.714.307,1.068.469.7.326,1.05.5.692.344,1.034.522.682.36,1.018.546.67.378,1,.573.659.392.985.6.645.411.965.621.635.427.949.645.623.443.931.672.613.459.914.694.6.475.9.718.589.492.878.742.575.508.86.767.562.522.84.789.552.538.823.813.538.552.8.836.528.568.785.858.514.585.767.882.5.6.746.9.49.615.728.927.475.629.708.949.463.643.688.971.449.657.67.991.435.672.649,1.014.421.686.627,1.036.409.7.609,1.056.394.714.587,1.078.382.728.568,1.1.368.742.546,1.121.354.755.526,1.139.338.769.5,1.159.326.783.484,1.179.31.8.461,1.2.3.811.439,1.22.283.823.419,1.24.267.835.4,1.258.253.85.372,1.279.239.862.352,1.3.225.874.33,1.315.208.886.308,1.335.192.9.283,1.353.178.91.261,1.372.164.922.239,1.388.148.937.214,1.408.131.947.192,1.424.115.959.168,1.442.1.971.144,1.461.083.983.119,1.477.069.993.1,1.5c.475.192.945.388,1.412.587s.931.4,1.39.611.914.417,1.366.631.9.431,1.341.651.882.447,1.317.676.866.459,1.293.694.848.475,1.266.716.833.488,1.244.736.817.5,1.218.759.8.514,1.2.777.783.526,1.167.8.767.542,1.145.817.751.552,1.119.836.732.564,1.092.854.716.579,1.068.872.7.591,1.042.892.682.6,1.016.908.666.615.991.929.647.625.965.945.629.637.939.961.613.649.912.979.595.662.886,1,.577.674.86,1.014.56.682.833,1.028.542.694.805,1.046.524.7.781,1.06.506.714.753,1.074.488.726.724,1.092.469.734.7,1.1.453.744.672,1.121.433.755.643,1.135.415.765.617,1.149.4.773.587,1.163.378.781.56,1.175.36.791.534,1.189.34.8.5,1.2.322.807.475,1.216.3.815.449,1.226.283.825.419,1.24.265.833.392,1.252.245.842.362,1.264.227.848.332,1.274.208.856.305,1.287.188.864.275,1.3.17.872.247,1.309.15.876.216,1.317.132.884.188,1.329.111.89.158,1.339.091.9.129,1.347.071.9.1,1.355.051.91.067,1.366.032.916.04,1.376.01.92.008,1.384-.01.924-.022,1.39-.03.933-.053,1.4-.049.937-.081,1.406-.071.943-.115,1.416-.089.945-.144,1.42-.111.951-.174,1.428-.134.957-.206,1.436-.154.959-.237,1.44-.174.963-.269,1.446-.194.969-.3,1.455-.216.971-.332,1.459c-.083.352-.172.7-.263,1.056s-.186.7-.285,1.054-.2.7-.308,1.05-.214.7-.328,1.05-.231.7-.352,1.044-.245.7-.372,1.044-.259.692-.394,1.038-.273.692-.415,1.036-.287.688-.437,1.03-.3.686-.455,1.028-.314.682-.475,1.022-.328.678-.5,1.016-.34.676-.516,1.012-.352.672-.534,1.007-.366.668-.554,1-.378.664-.573,1-.39.659-.591.987-.4.655-.611.981-.415.651-.627.975-.427.645-.645.967-.439.641-.662.959-.451.637-.68.953-.463.631-.7.945-.473.625-.712.935-.486.621-.73.929-.494.613-.746.918-.5.607-.761.908-.516.6-.777.9-.526.6-.793.892-.534.589-.807.88-.544.583-.821.87-.554.575-.835.86-.564.568-.852.85-.573.56-.864.838-.583.552-.878.827-.591.544-.89.815-.6.536-.9.8-.609.528-.918.791-.617.522-.929.779-.625.512-.943.767-.633.5-.953.753-.641.5-.965.738-.649.488-.977.728-.657.477-.987.712-.666.467-1,.7-.672.459-1.009.684-.678.449-1.02.67-.686.439-1.03.655-.692.429-1.04.639-.7.419-1.05.625-.7.407-1.058.607-.71.4-1.068.593-.714.386-1.074.577-.722.374-1.084.558-.728.366-1.092.544-.734.352-1.1.524-.738.342-1.109.51-.742.33-1.115.49-.749.318-1.123.473-.753.306-1.129.453-.757.293-1.137.437-.761.281-1.141.417-.765.269-1.149.4-.767.255-1.153.378l-.518.164-.522.162-.526.162-.532.158-.534.158c-.18.053-.358.105-.538.156s-.362.1-.544.154-.364.1-.546.154l-.552.15-.554.15-.558.146-.562.146-.568.144-.568.14c-.192.047-.382.1-.575.14s-.384.093-.579.138l-.581.136-.585.134-.589.129c-.2.045-.394.087-.591.129l-.6.127-.6.123c-.2.042-.4.083-.6.123l-.6.119-.609.117-.611.115-.615.113-.617.109-.621.109-.625.105-.625.1-.631.1-.631.1c-.212.032-.423.065-.635.1s-.425.063-.639.093l-.641.091-.643.087-.645.085-.649.081-.651.079-.653.077-.655.073-.659.071-.66.067c-.221.022-.443.045-.664.065s-.443.042-.666.061-.445.04-.668.059-.447.038-.67.057l-.672.053-.674.049-.678.047-.678.042c-.227.014-.451.026-.68.038s-.453.026-.682.036l-.684.034c-.227.01-.455.02-.684.028s-.459.018-.688.026l-.688.024-.692.018c-.231.006-.461.012-.692.016s-.461.01-.692.012l-.7.01c-.233,0-.463,0-.7,0s-.465,0-.7,0M114.5,122.145h-.56l-.566,0-.568,0-.575.006-.577.006-.581.01-.583.012c-.2,0-.39.008-.587.014l-.589.018c-.2.006-.394.012-.591.02s-.4.014-.595.022l-.593.026-.6.03-.6.034c-.2.012-.4.024-.6.038l-.6.042c-.2.014-.4.03-.6.047l-.6.051c-.2.018-.4.036-.6.057l-.6.061-.6.067c-.2.022-.4.047-.595.071s-.4.051-.593.079-.4.053-.593.083-.394.057-.591.089-.392.061-.589.1-.39.067-.585.1-.388.071-.583.107l-.579.115-.575.121c-.192.042-.382.085-.573.129s-.38.089-.568.138-.376.093-.562.144-.374.1-.56.152-.37.105-.552.16-.368.111-.55.168-.362.115-.542.176-.36.123-.538.186-.356.127-.532.194-.35.134-.524.2-.348.14-.52.212-.342.146-.51.22-.338.152-.506.231-.332.16-.5.241-.328.166-.49.251l-.481.261q-.24.133-.473.273c-.156.091-.312.186-.463.281s-.305.194-.455.293-.3.2-.447.3-.293.208-.437.316-.285.214-.427.326-.279.225-.417.338-.273.233-.407.35-.265.239-.4.362-.257.247-.384.374-.251.255-.374.386-.243.265-.362.4-.235.273-.35.413-.229.281-.34.425-.218.289-.326.439-.21.3-.314.451-.2.307-.3.465-.194.316-.287.477l-.127.225-.123.227c-.038.077-.079.152-.117.229s-.079.154-.117.231-.075.154-.111.233-.071.154-.107.233l-.1.237c-.034.079-.067.158-.1.237s-.065.158-.1.239-.061.16-.091.241-.059.16-.089.241-.057.162-.083.245-.055.162-.081.245-.051.164-.075.245-.051.166-.073.249-.047.166-.069.249-.042.166-.065.249l-.061.251-.055.253c-.02.083-.036.168-.053.253s-.034.168-.051.253-.03.17-.045.255-.026.172-.04.257l-.036.257c-.012.085-.022.17-.032.257s-.02.172-.03.259l-.024.257c-.008.087-.014.174-.022.259s-.012.174-.016.261-.01.174-.014.259-.006.174-.008.261l-.006.261c0,.087,0,.174,0,.261s0,.176,0,.263,0,.174.006.261.006.174.01.263.008.174.014.261l.018.263c.006.087.014.174.022.261s.016.174.026.261l.03.263c.01.087.022.174.034.261l.036.261.042.261c.014.087.03.174.047.261l.049.261.055.259c.018.087.038.172.057.259s.042.172.063.259.042.172.065.257.047.172.071.257.049.172.073.257.051.172.077.257.055.17.083.255.057.168.085.253.059.17.089.253.063.168.093.253.065.166.1.251.067.166.1.249.071.166.105.249l.109.247c.036.083.075.164.113.247s.077.164.117.245l.121.243c.083.164.168.326.259.486s.184.32.279.477.2.314.3.469.208.308.32.459.223.3.338.451.235.3.358.441.247.291.374.433.261.283.394.423.271.277.411.415.281.271.427.4.293.263.445.394.3.257.459.384.314.251.475.374.324.245.49.364.334.239.5.356.344.231.52.344.352.225.53.334.362.218.546.324.368.212.556.314.378.2.57.3.384.2.581.291.392.19.591.281.4.182.6.269.407.176.613.259.415.168.623.249.419.16.631.237.427.152.641.225.431.144.647.212.437.136.657.2.441.127.664.19.445.119.67.178.451.111.678.166.453.1.682.154.459.1.688.142.461.087.694.127.465.081.7.117.467.073.7.105.471.063.706.091.471.055.708.079.473.047.71.067.475.036.712.053.475.028.714.038.477.02.716.026.477.012.716.014.477,0,.716,0,.475-.008.714-.014.477-.016.716-.028.475-.024.712-.04.475-.034.712-.055.473-.044.71-.071.471-.053.708-.083.469-.063.7-.1.467-.073.7-.113.463-.081.7-.125.461-.091.692-.142.457-.1.686-.156.455-.109.682-.17.449-.121.674-.186.447-.129.668-.2.443-.14.662-.214.439-.152.655-.231.431-.162.645-.247.427-.172.637-.261.421-.182.629-.277c.16-.075.32-.15.479-.227s.316-.156.473-.237.312-.164.467-.247.31-.172.461-.259.305-.18.457-.271.3-.186.451-.281.3-.192.443-.291.3-.2.441-.3.289-.206.433-.314.285-.212.427-.324.281-.221.421-.334.279-.229.417-.346.275-.235.411-.354.269-.243.4-.366.267-.249.4-.376.263-.255.392-.386.259-.263.386-.4.253-.269.38-.407.249-.277.372-.417.247-.283.368-.427.243-.289.362-.437.239-.3.356-.447.235-.3.35-.455.229-.31.342-.465.227-.316.338-.475.223-.324.332-.486.216-.328.324-.5.212-.334.318-.5.21-.34.314-.514.2-.346.305-.522.2-.354.3-.532.2-.358.293-.54.19-.366.285-.55.188-.372.281-.56.182-.376.273-.568.178-.382.267-.577.174-.388.261-.585.17-.4.253-.595.166-.4.249-.6.162-.407.241-.613.156-.413.233-.619.154-.419.229-.629.148-.425.221-.637.144-.429.214-.645.14-.435.208-.655.134-.439.2-.662.129-.445.194-.67.125-.451.186-.678.121-.457.18-.688.117-.461.174-.694.113-.467.166-.7.109-.471.16-.71.1-.475.154-.716.1-.483.146-.726.093-.488.138-.732.089-.494.134-.74.083-.5.123-.749.081-.5.117-.755.075-.508.111-.763.071-.512.1-.769.065-.518.1-.779.061-.52.089-.783.055-.526.081-.791.051-.532.075-.8c-.107-.02-.216-.042-.326-.065l-.326-.065-.328-.063c-.109-.022-.219-.042-.33-.063l-.33-.061-.332-.061-.332-.061-.334-.057-.336-.059-.336-.055c-.113-.02-.225-.038-.338-.057l-.338-.055c-.113-.016-.227-.034-.34-.053s-.229-.034-.342-.053-.229-.032-.342-.051l-.344-.049c-.115-.018-.231-.034-.346-.051l-.346-.049c-.115-.014-.231-.03-.346-.047l-.35-.045-.35-.047-.35-.042c-.117-.016-.235-.03-.352-.045s-.237-.026-.354-.04-.237-.028-.354-.04-.237-.028-.356-.04-.239-.026-.358-.038-.239-.026-.358-.038l-.36-.036-.36-.036c-.119-.01-.241-.022-.362-.034l-.362-.032c-.121-.012-.243-.022-.364-.032s-.245-.022-.366-.032l-.366-.03-.368-.03c-.123-.008-.247-.018-.37-.028l-.37-.026c-.123-.01-.247-.018-.372-.026l-.372-.026-.374-.024-.374-.022c-.125-.008-.251-.016-.376-.022l-.378-.022c-.127-.006-.253-.012-.378-.02l-.38-.018-.382-.018-.382-.018-.384-.014c-.127-.006-.255-.012-.384-.016s-.257-.008-.386-.014l-.386-.012-.388-.012c-.129,0-.261-.008-.39-.01s-.261-.008-.39-.01l-.392-.01c-.132,0-.261,0-.392-.008l-.394-.006-.4-.006-.4,0-.4,0-.4,0-.4,0h-.4" fill="#fff"/>
  </g>
</svg>
