<svg xmlns="http://www.w3.org/2000/svg" width="240.225" height="240.281" viewBox="0 0 240.225 240.281">
  <g id="XMLID_1596_" transform="translate(0)">
    <path id="XMLID_1598_" d="M505.725,229.929c-1.6-63.274-53.717-114.064-117.878-114.064-63.385,0-115.061,49.635-117.813,111.912-.055,1.708-.111,3.426-.111,5.134a116.149,116.149,0,0,0,16.89,60.458l-21.258,62.776,65.315-20.759a118.153,118.153,0,0,0,56.977,14.581c65.149,0,117.933-52.4,117.933-117.047C505.78,231.915,505.78,230.926,505.725,229.929ZM387.847,331.3a98.767,98.767,0,0,1-54.548-16.29l-38.092,12.143,12.365-36.55a97.439,97.439,0,0,1-18.885-57.7,91,91,0,0,1,.5-9.548c4.857-49.8,47.262-88.836,98.661-88.836,52.064,0,94.856,40.022,98.827,90.71.222,2.54.333,5.079.333,7.674C487.007,287.183,442.506,331.3,387.847,331.3Z" transform="translate(-265.555 -115.865)" fill="#fff" fill-rule="evenodd"/>
    <path id="XMLID_1597_" d="M393.025,205.949c-3.16-1.545-18.482-9.061-21.342-10.068-2.861-1.077-4.944-1.545-7.038,1.555s-8.1,10.068-9.9,12.1c-1.844,2.083-3.638,2.323-6.788.778-3.1-1.545-13.168-4.765-25.091-15.381a92.613,92.613,0,0,1-17.345-21.392c-1.784-3.1-.179-4.765,1.376-6.32,1.425-1.426,3.1-3.638,4.7-5.423.419-.538.777-1.017,1.137-1.5a32.927,32.927,0,0,0,1.964-3.7,5.571,5.571,0,0,0-.239-5.423c-.777-1.555-7.037-16.807-9.659-23.007-2.562-6.2-5.183-5.124-7.028-5.124-1.794,0-3.878-.3-5.961-.3a11.567,11.567,0,0,0-8.343,3.868c-2.861,3.1-10.905,10.606-10.905,25.868a39.561,39.561,0,0,0,1.6,10.546c3.16,10.906,9.948,19.907,11.145,21.452,1.545,2.024,21.571,34.321,53.281,46.781,31.769,12.341,31.769,8.224,37.491,7.686,5.722-.479,18.482-7.446,21.033-14.723,2.622-7.207,2.622-13.407,1.844-14.723C398.209,208.272,396.116,207.494,393.025,205.949Z" transform="translate(-211.541 -65.853)" fill="#fff" fill-rule="evenodd"/>
  </g>
</svg>
