<svg xmlns="http://www.w3.org/2000/svg" width="750.941" height="547" viewBox="0 0 750.941 547">
  <g id="Word_cloud_desktop" data-name="Word cloud desktop" transform="translate(-225 -6957)">
    <g id="Entertainment" data-name="Entertainment" transform="translate(-313.329 -4446.745)">
      <path id="Path_24132" data-name="Entertainment" d="M0,0H518.658V80H0Z" transform="translate(630 11404)" fill="#b2d1b3"/>
      <text id="Entertainment-2" data-name="Entertainment" transform="translate(655 11406)" font-size="60" font-family="Merriweather-Bold, Merriweather" font-weight="700"><tspan x="8" y="59">Entertainment</tspan></text>
    </g>
    <g id="Health" data-name="Health" transform="translate(-10229 7821) rotate(-90)">
      <path id="Path_24170" data-name="Path 24170" d="M0,0H116.636V50H0Z" transform="translate(464 10934) rotate(90)" fill="#ebc397"/>
      <text id="Health-2" data-name="Health" transform="translate(459 10940.139) rotate(90)" font-size="30" font-family="Merriweather-Bold, Merriweather" font-weight="700"><tspan x="0" y="30">Health</tspan></text>
    </g>
    <g id="Bengaluru" data-name="Bengaluru" transform="translate(-611 -4211)">
      <path id="Path_24186" data-name="Path 24186" d="M0,0H175.915V50H0Z" transform="translate(1187 11433.915) rotate(-90)" fill="#dbbcc1"/>
      <text id="Bengaluru-2" data-name="Bengaluru" transform="translate(1191 11429.906) rotate(-90)" font-size="30" font-family="Merriweather-Bold, Merriweather" font-weight="700"><tspan x="3" y="30">Bengaluru</tspan></text>
    </g>
    <g id="Interview" data-name="Interview" transform="translate(-574 -4136.745)">
      <path id="Path_24133" data-name="Path 24133" d="M0,0H328.941V80H0Z" transform="translate(1215 11244)" fill="#b2d1b3"/>
      <text id="Interview-2" data-name="Interview" transform="translate(1224 11249)" font-size="60" font-family="Merriweather-Bold, Merriweather" font-weight="700"><tspan x="7" y="59">Interview</tspan></text>
    </g>
    <g id="Food" data-name="Food" transform="translate(-885 -4196.745)">
      <path id="Path_24133-2" data-name="Path 24133" d="M0,0H187.537V80H0Z" transform="translate(1215 11244)" fill="#b2d1b3"/>
      <text id="Food-2" data-name="Food" transform="translate(1220.131 11249)" font-size="60" font-family="Merriweather-Bold, Merriweather" font-weight="700"><tspan x="14" y="59">Food</tspan></text>
    </g>
    <g id="Delhi" data-name="Delhi" transform="translate(-347.342 -3855.49)">
      <rect id="Rectangle_17869" data-name="Rectangle 17869" width="163" height="70" transform="translate(988.342 11053)" fill="#bedde2"/>
      <text id="Delhi-2" data-name="Delhi" transform="translate(996.342 11058)" font-size="50" font-family="Merriweather-Bold, Merriweather" font-weight="700"><tspan x="5" y="49">Delhi</tspan></text>
    </g>
    <g id="Mumbai" data-name="Mumbai" transform="translate(11499 6687) rotate(90)">
      <path id="Path_24137" data-name="Path 24137" d="M0,0H170V50H0Z" transform="translate(525 11224)" fill="#ebc397"/>
      <text id="Mumbai-2" data-name="Mumbai" transform="translate(535 11229)" font-size="30" font-family="Merriweather-Bold, Merriweather" font-weight="700"><tspan x="11" y="30">Mumbai</tspan></text>
    </g>
    <g id="Hyderabad"  data-name="Hyderabad" transform="translate(-253 -3921.745)">
      <path id="Path_24142" data-name="Path 24142" d="M0,0H236.045V60H0Z" transform="translate(583 11059)" fill="#ebdfc5"/>
      <text id="Hyderabad-2" data-name="Hyderabad" transform="translate(591.139 11064)" font-size="40" font-family="Merriweather-Bold, Merriweather" font-weight="700"><tspan x="0" y="39">Hyderabad</tspan></text>
    </g>
    <g id="Chennai" data-name="Chennai" transform="translate(58 -3706.235)">
      <path id="Path_24141" data-name="Path 24141" d="M0,0H184.612V60H0Z" transform="translate(583 10984)" fill="#ebdfc5"/>
      <text id="Chennai-2" data-name="Chennai" transform="translate(590 10989)" font-size="40" font-family="Merriweather-Bold, Merriweather" font-weight="700"><tspan x="0" y="39">Chennai</tspan></text>
    </g>
    <g id="Business" data-name="Business" transform="translate(-719.882 -3822)">
      <path id="Path_24133-3" data-name="Path 24133" d="M0,0H328.941V80H0Z" transform="translate(1215 11244)" fill="#b2d1b3"/>
      <text id="Business-2" data-name="Business" transform="translate(1224 11249)" font-size="60" font-family="Merriweather-Bold, Merriweather" font-weight="700"><tspan x="19" y="59">Business</tspan></text>
    </g>
    <g id="Kolkata" data-name="Kolkata" transform="translate(1532.059 18646.168) rotate(180)">
      <path id="Path_24186-2" data-name="Path 24186" d="M0,0H199V60H0Z" transform="translate(1187.059 11434.168) rotate(-90)" fill="#ebdfc5"/>
      <text id="Kolkata-2" data-name="Kolkata" transform="translate(1192.059 11424.168) rotate(-90)" font-size="40" font-family="Merriweather-Bold, Merriweather" font-weight="700"><tspan x="11" y="39">Kolkata</tspan></text>
    </g>
    <g id="Science" data-name="Science" transform="translate(-147.941 -3736.235)">
      <path id="Path_24141-2" data-name="Path 24141" d="M0,0H184.612V60H0Z" transform="translate(583 10984)" fill="#ebdfc5"/>
      <text id="Science-2" data-name="Science" transform="translate(590 10989)" font-size="40" font-family="Merriweather-Bold, Merriweather" font-weight="700"><tspan x="0" y="39">Science</tspan></text>
    </g>
    <g id="Sports" data-name="Sports" transform="translate(11478.059 6223.912) rotate(90)">
      <rect id="Rectangle_17869-2" data-name="Rectangle 17869" width="210" height="70" transform="translate(988.088 11053.059)" fill="#bedde2"/>
      <text id="Sports-2" data-name="Sports" transform="translate(994.088 11058.059)" font-size="50" font-family="Merriweather-Bold, Merriweather" font-weight="700"><tspan x="17" y="49">Sports</tspan></text>
    </g>
    <g id="Data" data-name="Data" transform="translate(-10293 7511) rotate(-90)">
      <path id="Path_24170-2" data-name="Path 24170" d="M0,0H116.636V50H0Z" transform="translate(464 10934) rotate(90)" fill="#ebc397"/>
      <text id="Data-2" data-name="Data" transform="translate(459 10940.139) rotate(90)" font-size="30" font-family="Merriweather-Bold, Merriweather" font-weight="700"><tspan x="17" y="30">Data</tspan></text>
    </g>
    <g id="Opinion" data-name="Opinion" transform="translate(11355.059 5968.912) rotate(90)">
      <rect id="Rectangle_17869-3" data-name="Rectangle 17869" width="240" height="70" transform="translate(988.088 11053.059)" fill="#bedde2"/>
      <text id="Opinion-2" data-name="Opinion" transform="translate(1004.088 11058.059)" font-size="50" font-family="Merriweather-Bold, Merriweather" font-weight="700"><tspan x="2" y="49">Opinion</tspan></text>
    </g>
    <g id="Fashion" data-name="Fashion" transform="translate(12206.552 5863.255) rotate(90)">
      <path id="Path_24186-3" data-name="Path 24186" d="M0,0H175.915V50H0Z" transform="translate(1187 11433.915) rotate(-90)" fill="#dbbcc1"/>
      <text id="Fashion-2" data-name="Fashion" transform="translate(1191 11429.906) rotate(-90)" font-size="30" font-family="Merriweather-Bold, Merriweather" font-weight="700"><tspan x="22" y="30">Fashion</tspan></text>
    </g>
    <g id="Technology" data-name="Technology" transform="translate(-10217.446 8492.642) rotate(-90)">
      <rect id="Rectangle_17869-4" data-name="Rectangle 17869" width="310" height="70" transform="translate(988.642 11053.446)" fill="#bedde2"/>
      <text id="Technology-2" data-name="Technology" transform="translate(998.642 11057.446)" font-size="48" font-family="Merriweather-Bold, Merriweather" font-weight="700"><tspan x="2" y="47">Technology</tspan></text>
    </g>
    <g id="Hyderabad-3" data-name="Education" transform="translate(-10143.059 8087) rotate(-90)">
      <path id="Path_24142-2" data-name="Path 24142" d="M0,0H236.045V60H0Z" transform="translate(583 11059)" fill="#ebdfc5"/>
      <text id="Education" transform="translate(591.139 11064)" font-size="40" font-family="Merriweather-Bold, Merriweather" font-weight="700"><tspan x="11" y="39">Education</tspan></text>
    </g>
    <g id="Kolkata-3" data-name="Life-and-Style" transform="translate(11918.016 6170.468) rotate(90)">
      <path id="Path_24186-4" data-name="Path 24186" d="M0,0H260V50H0Z" transform="translate(1186.532 11483.016) rotate(-90)" fill="#dbbcc1"/>
      <text id="Life-and-Style" transform="translate(1191.532 11483.016) rotate(-90)" font-size="30" font-family="Merriweather-Bold, Merriweather" font-weight="700"><tspan x="13" y="30">Life-and-Style</tspan></text>
    </g>
  </g>
</svg>
