<svg xmlns="http://www.w3.org/2000/svg" width="246.21" height="173.116" viewBox="0 0 246.21 173.116">
  <path id="Icon_awesome-youtube" data-name="Icon awesome-youtube" d="M242.115,31.587A30.936,30.936,0,0,0,220.347,9.678C201.147,4.5,124.155,4.5,124.155,4.5s-76.992,0-96.193,5.178A30.937,30.937,0,0,0,6.195,31.587C1.05,50.912,1.05,91.233,1.05,91.233s0,40.321,5.145,59.646a30.476,30.476,0,0,0,21.768,21.559c19.2,5.178,96.193,5.178,96.193,5.178s76.992,0,96.193-5.178a30.476,30.476,0,0,0,21.768-21.559c5.145-19.325,5.145-59.646,5.145-59.646s0-40.321-5.145-59.646ZM98.974,127.841V54.625l64.35,36.609-64.35,36.607Z" transform="translate(-1.05 -4.5)" fill="#fff"/>
</svg>
